<?xml version="1.0" encoding="utf-8"?>
<!-- Generator: Adobe Illustrator 24.3.0, SVG Export Plug-In . SVG Version: 6.00 Build 0)  -->
<svg version="1.1" xmlns="http://www.w3.org/2000/svg" xmlns:xlink="http://www.w3.org/1999/xlink" x="0px" y="0px"
	 viewBox="0 0 576 504" style="enable-background:new 0 0 576 504;" xml:space="preserve">
<style type="text/css">
	.st0{fill:#7F1416;}
	.st1{fill:#737474;}
	.st2{fill:#FFFFFF;}
	.st3{display:none;}
	.st4{display:inline;}
</style>
<g id="phoenix">
	<g>
		<g>
			<path class="st2" d="M292.26,55.61c-6.23,0-11.65,4.11-11.65,4.88c0,1.08,0.59,1.9,2.02,1.9c1.35,0,3.48-0.76,6.59-2.7
				c-4.99,5.77,0.68,10.47,0.68,10.47c-2.06-0.31-5.04-0.99-6.93-2.08c-0.39,2.08,2.49,2.85,3.87,3.75
				c1.82,0.75,3.57,1.06,5.19,1.06c7.84,0,13.92-7.2,21.58-8.69v-0.39c-6.19-0.89-11.09-5.23-16.77-7.39
				C295.3,55.86,293.75,55.61,292.26,55.61 M295.82,69.58c0,0,2.8-3.03,2.79-5.2c-0.01-2.95-2.79-5.09-2.79-5.09
				c2.39,0.68,8.06,3.88,10.09,5.2L295.82,69.58z"/>
			<path class="st2" d="M290.27,40.33c-1.12,0-2.22,0.08-3.32,0.24c-5.26,0.6-11.23,3.24-14.64,7.91c-1.11-0.73-2.55-1.32-4.37-1.32
				c-1.69,0-3.39,0.51-5.24,1.56l-0.83,0.48l-0.57,0.77l-0.47,0.74c-0.83-0.53-1.79-0.89-2.96-0.98l-0.96-0.07L256,49.98
				c-4.55,1.61-13.65,8.48-15.01,17.72c-0.52,3.51,0.54,8.29,5.06,12.99h-0.01l0.14,0.16l-0.03,0.03c0.27,0.28,0.65,0.61,1.03,0.92
				l0.11,0.11l0.06,0.04l0.25,0.19c0.89,0.75,2.13,1.63,3.54,2.23v0.02l0.08,0.02l0.31,0.12c0.27,0.11,0.53,0.2,0.83,0.27l0.13,0.03
				l0.03,0.01l0.15,0.07c0.62,0.18,1.1,0.26,1.49,0.26c1.35,0,1.35-0.92,1.35-0.92l0.05-0.99l0.11-2.22
				c0.01-1.2,0.33-2.08,0.61-2.62l0.2-0.4l0.27-0.32c0.53-0.58,1.29-1.01,2.51-1.2l0.23-0.04l0.38-0.04l0.21-0.02l0.36,0.06
				c2.23,0.35,3.53,3.7,4.09,5.5l0.09,0.31l0.19,0.65l0.37,1.33l0.43,1.6l0.27-0.02l0.06,0.16c-3.37,0.2-6.84,0.77-10.22,1.35
				c-3.68,0.63-7.15,1.23-9.99,1.23c-4.55,0-5.49-1.37-5.74-4.24l-0.64-6.84l-5.31,4.16c-0.59,0.46-5.81,4.68-6.28,10.1
				c-0.21,2.5,0.59,4.85,2.32,6.81c3.01,3.41,7.2,5.14,12.44,5.14c5.02,0,10.55-1.53,15.92-3.03c0.91-0.24,1.82-0.5,2.73-0.74
				c-0.01,0.4-0.04,1.08,0.01,1.93c0.11,0.65,0.2,1.11,0.2,1.11c0.05,0.61,0.2,1.21,0.34,1.81c0.16,0.66,0.45,1.28,0.71,1.91
				c0.31,0.67,0.63,1.37,1.09,2.1c0.37,0.58,0.7,1.17,1.12,1.73l0.23,0.24c2.68,3.15,6.43,5.39,9.69,5.39c0.87,0,1.72-0.1,2.5-0.32
				c1.12-0.31,2.15-0.46,3.07-0.46c1.85,0,2.78,0.63,2.86,1.08c0.07,0.49-0.66,1.43-2.48,2.05l-5.55,1.84l3.16,4.93
				c0.97,1.52,2.26,2.68,3.73,3.44c-1.98,0.4-3.85,0.65-5.23,0.84l-1.59,0.22l-5.12,0.75l1.44,5c0.18,0.66,0.39,1.23,0.63,1.79
				c-4,1.58-7.42,4.02-10.28,7.31c-0.86,0.99-1.63,2.03-2.33,3.12c-2.44-14.18-10.45-19.41-17.61-23.98
				c-6.41-4.11-11.92-7.64-14.07-17.86l-0.89-4.21l-0.07-0.31c-0.27-0.64-1.02-2.03-2.22-2.03c-0.5,0-1.06,0.23-1.71,0.85
				l-0.21,0.25l-2.87,3.5c-3.45,4.22-12.59,21.73-7.54,29.76c2.41,3.8,6,5.8,8.63,7.26c0.86,0.46,2.1,1.16,2.59,1.59
				c0.05,0.5,0.09,0.96,0.12,1.36l-1.15-0.75c-1.5-0.97-3.18-2.09-5.25-2.9c-1.52-0.6-3.19-0.89-5.15-0.89
				c-3.91,0-8.31,1.18-12.56,2.34c-3.56,0.97-7.23,1.96-9.74,1.96c-1.25,0-1.61-0.24-1.61-0.24s-0.23-0.28-0.31-1.21
				c-0.07-0.77-0.1-1.3-0.1-1.65c2.06-1.74,2.77-4.14,2.57-8.17c-0.23-4.75-1.62-6.79-3.79-8.55l-0.29-0.25
				c0.01,0-0.32-0.79-0.34-3.59c-0.01-2.26,1.82-3.8,4.6-5.86c1.52-1.13,3.08-2.3,4.07-3.85l0.81,0.29c2.28,0.83,5.1,1.87,8.32,1.87
				c6.41,0,11.33-4.08,14.6-12.15l1.43-3.54l0.08-0.19c0.68-2.45-0.81-3.01-2-3.09l-1.2,0.18l-3.17,0.44l-0.64,0.05
				c-2.83,0-6.2-1.39-7.22-2.38c1.86-10.26,1.48-24.99-5.65-33.63c-4.03-4.88-9.84-7.46-16.83-7.46c-2.54,0-5.29,0.34-8.18,1
				c-2.39,0.54-5.39,1.63-8.89,2.87c-6.61,2.37-14.84,5.31-20.81,5.31c-4.9,0-5.78-1.88-6.25-3.8l-1.95-8.1l-0.16-0.61
				c-0.16-0.45-0.39-0.63-0.66-0.63c-0.65,0-1.53,1.11-2.26,2.27c-0.78,1.24-1.42,2.49-1.43,2.52l-1.92,3.4
				c-3.68,6.5-4.32,11.59-2,15.57c0.59,1.03,1.33,1.86,2.16,2.55c-20.5,13.34-69.37,44.28-84.19,52.46l-1.68,0.92l-0.53,0.3
				c-1.44,0.84-5.1,3.38-0.98,5.28l0.03,0l3.42,1.6c4.58,2.13,9.88,3.21,15.72,3.21c6.96,0,17.81-1.59,32.58-8.25
				c-12.15,12.04-39.81,26.77-51.99,33.24l-3.62,1.94l-2.23,1.2c-0.06,0.02-0.61,0.28-1.3,0.71c-1.89,1.14-4.64,3.46,0.61,5.17
				l0.06,0.02l3.53,1.21c4.9,1.69,10.09,2.55,15.42,2.55c8.17,0,15.81-2,22.31-4.52c-4.85,4.7-10.32,9.84-15.28,14.5
				c-9.43,8.85-19.15,17.98-25.64,24.81v-0.01c0,0-0.49,0.46-1.06,1.12c-1.39,1.67-3.21,4.7,0.73,6.1l1.3,0.36l0.82,0.23
				c2.04,0.57,4.15,0.86,6.28,0.86c11.72,0,21.73-8.55,29.77-15.41l0.53-0.45c0.57-0.48,1.15-1,1.75-1.55
				c-15.74,29.1-27.13,66.22-22.95,80.64c1.33,4.61,4.04,6.4,6.08,7.08l3.82,1.31l1.74-3.64c3.11-6.54,10.17-23.87,17.65-42.21
				c3.33-8.18,7.19-17.63,10.68-26.08c-0.28,2.51-0.5,4.99-0.61,7.27c-1.43,28.24-1.82,43.18,4.7,72.96l-0.93-0.63l3.06,10.31
				l0.1,0.45l0.04-0.04l0.43,1.45l1.28,4.39c2.93,10.08,5.71,19.6,11.62,30.81c1.86,3.52,4.51,4.03,5.93,4.03
				c1.24,0,3.64-0.4,5.62-3.29c3.76-5.46,4.93-18.02,0.77-30.2c12.94,3.83,31.22,8.31,53.78,11.33c-5.34,1.83-10.6,5.05-15.86,9.76
				l-5.66,5l-5.8-4.32l-0.07-0.07l-1-0.76c-0.58-0.22-1.24-0.41-1.81-0.41c-0.77,0-1.38,0.36-1.36,1.46l0.79,2.02l0.03,0.08
				l3.11,7.94c7.93,20.24,40.84,43.11,53.6,43.13c6.79,0,13.71-3.57,21.05-7.35c8.12-4.17,16.48-8.46,25.18-8.46
				c0.42,0,0.83,0,1.25,0.02c1.61,0.09,3.14,0.23,4.55,0.48c-10.72,0.42-21.08,7.46-30.87,20.91l-2.71,3.7
				c-5.59-1.58-12.63-2.62-21.49-2.62c-3.63,0-7.52,0.17-11.55,0.52l-3.64,0.33l0.05-0.06c-1.56,0.06-2.78,0.2-3.8,0.38
				c-6.21,0.98-3.9,3.23-1.79,4.56l1.98,0.9l5.72,2.57c13.42,6.06,28.64,21.38,37.72,30.53c1.23,1.25,2.35,2.36,3.36,3.38
				c4.73,4.68,10.29,7.05,16.5,7.05c8,0,15.98-4.02,23.06-9.04l6.84,10.69c1.24,1.92,12.47,18.81,26.25,18.81
				c4.82,0,9.2-2.02,13.05-6c11.52-11.96,2.14-22.96-4.05-30.27c-6.62-7.74-7.58-10.03-5.26-12.72l0.04,0.01l0.17-0.01
				c3.29,0,10.51,4.72,16.31,8.5c7.68,4.97,14.94,9.71,20.83,9.9c1.65,0.18,3.27,0.27,4.82,0.27c15.79,0,22.81-9.27,27.93-16.05
				c3.8-5,5.94-7.59,9.42-7.59l0.4,0.02l5.29,0.27l1.43,0.08c1.35-0.2,2.88-0.91,1.39-3.37l-0.32-0.31l-4.33-4.4
				c-7.94-8.06-16.04-9.76-21.42-9.76c-8.71,0-15.51,4.25-17.97,7.09c-2.41,2.83-4.94,4.19-7.72,4.19c-4.56,0-9.61-3.4-14.03-6.82
				c-2.03-2.49-4.65-4.35-7.65-5.48c0.45-0.04,0.91-0.06,1.36-0.06c0.81,0,1.63,0.07,2.41,0.22c5.4,1.03,11.1,1.59,17.02,1.59
				c22.56,0,41-7.48,45.68-10.1c7.41-4.17,12.56-9.91,18.48-16.56c3.33-3.72,6.77-7.57,11.01-11.62l0.93-0.87l0.05,0.05
				c1.26-1.11,2.17-2.04,2.93-2.9c3.53-3.92,2.06-5.04-0.8-5.04c-3.35,0-8.61,1.55-9.91,1.95l-0.3,0.1h0.03
				c-3.86,1.64-10.55,5.11-21.88,11.15c-3.72,1.98-7.02,3.74-9.05,4.76c-4.7,2.36-9.33,3.57-13.79,3.57c-6,0-10.73-2.18-14.03-4.01
				c11.65-3.23,21.38-10.09,30.81-16.74c8.16-5.75,15.88-11.19,24.68-14.4l0.15-0.04l0.13-0.07c8.5-3.82,17.97-5.09,27.98-6.45
				c8.2-1.1,16.52-2.28,24.44-4.88c-2.41,9.96-2.8,21.48,0.66,26.22c1.3,1.76,3.13,2.75,5.14,2.75c2.48,0,4.76-1.47,6.76-4.36
				c8.33-11.95,13.99-25.65,17.3-41.89l1.46-7.23c1.53-1.5,3.14-2.64,5.03-3.28l7.35-2.43l-5.72-5.23c-2.02-1.85-4.3-2.78-6.79-2.78
				c-0.59,0-1.19,0.07-1.73,0.14c2.5-5.27,4.22-11.01,4.64-18.49c0.12-2.47,2.85-5.76,4.84-8.14c1.44-1.73,2.69-3.23,3.47-4.78
				l2.35-4.8c2.27,9.42,4.7,18.8,7.31,27.99c0.29,1.05,0.56,2.14,0.89,3.19c0.75,1.67,2.03,3.4,4.02,4.11l0.45,0.18l-0.09-0.11
				c0.24,0.03,0.44,0.14,0.7,0.14c1.23,0,3.09-0.38,4.86-2.22c1.98-2.07,8.09-8.36,6.48-58.97c-0.41-12.5-5.3-29.49-12.12-42.29
				c-1.84-3.48-3.99-7.27-6.27-11.26c8.9,6.58,23.24,12.22,29.22,13.3l-0.03,0.03c1.58,0.4,2.85,0.58,3.87,0.58
				c2.96,0,3.73-1.49,3.65-3.19c-0.07-1.15-0.5-2.39-0.91-3.34c-0.39-0.85-0.76-1.48-0.76-1.48l-0.02,0.04
				c-7-13.28-17.22-25.96-27.3-37.09c3.43,1.77,6.46,2.82,8.81,2.82c1.33,0,2.35-0.31,3.15-0.73v0.01l0.01-0.01l0.31-0.21l0.83-0.59
				l0.46-0.47l0.08-0.06l0.35-0.42c1.52-2.34-0.38-5.22-2.07-7.11c-1.04-1.15-1.97-1.91-1.99-1.94l-25.44-24.73
				c-4.27-5.68-9.21-10.69-12.78-14.17c0.25-0.52,0.41-1.07,0.5-1.59c0.92-6.93-16.38-14.96-25.38-18.32
				c1.81-1.78,2.85-4.16,2.89-6.88l0.12-5.75l-5.63,1.23c-1.16,0.27-2.39,0.39-3.65,0.39c-3.22,0-6.75-0.84-10.27-2.43
				c-9-4.17-22.57-8.4-32.49-8.4c-3.23,0-6.01,0.45-8.25,1.33c-1.06,0.41-1.91,0.72-2.66,0.99c-2.69,0.97-4.48,1.67-7.54,3.84
				c-1.34-0.47-3.08-0.92-5.13-0.92c-5.43,0-10.74,3.09-15.78,9.17l-0.34,0.38c-3.37,4.07-6.88,8.29-7.14,12.61
				c-0.15,3.11-0.32,6.29,1.85,7.8l0.2,0.72c-0.4,1.12-3.4,4.5-13.11,7.75c-6.76,2.27-7.82,8.63-6.88,12.35l0.88,3.46l-0.99-0.27
				l-1.52-0.45c-0.67-0.13-1.44-0.24-2.14-0.24c-1.29,0-2.29,0.38-1.79,1.74l0.59,0.98l2.4,3.99l-0.08-0.03l0.57,0.96l0.05-0.03
				l0.5,0.85c2.43,4.06,3.29,6.52,2.85,8.22c-0.39,1.52-2.06,3.14-4.93,4.8c-3.56,2.07-4.98,6.07-6.23,9.61
				c-1.6,4.51-2.34,5.67-3.57,5.67c-0.68,0-2.2-0.23-5.03-1.73l-2.25-1.2l1.15-2.72c3.23-7.61,4.49-13.38,4.63-17.88
				c0.75,0.21,1.53,0.33,2.37,0.33c1.98,0,3.9-0.69,5.53-2l2.73-2.16c1.48-1.78-0.45-3.62-1.07-4.15l-2.37-1.25
				c-5.53-2.92-6.15-6.43-6.93-13.46c-0.12-0.87-0.2-1.75-0.31-2.63c-0.09-0.71-0.23-1.39-0.36-2.03c4.95-0.46,7.97-4.67,8.7-8.6
				l1.79-9.65l-8.32,4.77l-0.47,0.06c-2.68,0-3.33-4.63-3.49-6.61c-0.14-1.75-0.72-3.23-1.54-4.51c2.87-1.17,5.66-2.99,7.59-5.9
				c2.43-3.62,3.01-8.13,1.74-13.44l-1.87-7.74c-0.44-1.08-0.93-1.49-1.42-1.49c-0.46,0-0.91,0.35-1.33,0.83l-3.83,7.37
				c-0.51,0.95-1.07,1.78-1.72,2.44c0-0.73-0.06-1.49-0.17-2.29l-0.71-4.07l-0.17-1.02c-0.24-0.38-0.62-0.51-1.02-0.51
				c-0.29,0-0.59,0.07-0.87,0.16l-0.9,0.51l-3.06,1.71c-1.92,1.08-3.87,1.62-5.91,1.62c-3.7,0-7.67-1.71-11.86-3.57l-2.39-1.05
				C300.79,42.25,295.78,40.35,290.27,40.33 M273.13,54.97c0.39,0,0.81-0.2,1.34-0.72c1.57-5.51,7.91-8.59,13.14-9.18
				c0.91-0.13,1.79-0.19,2.66-0.19c10.55,0,19.5,8.49,29.26,8.49c2.66,0,5.34-0.62,8.14-2.2c1.05,6.3-4.8,7.87-4.77,7.87
				c1.41,0.33,2.72,0.49,3.91,0.49c6.46,0,9.77-4.3,11.28-7.17c3.49,14.5-11.13,15.31-15.69,16.17c0,0,7.41,2.12,7.8,6.96
				c0.7,8.87,5.03,10.78,8.01,10.78c1.13,0,2.07-0.27,2.53-0.55c-0.19,1.04-1.44,4.96-5.18,4.96c-1.62,0-3.72-0.73-6.39-2.74
				c-1.49,1.48,2.42,3.76,3.2,9.86c1,7.69,0.75,14.82,9.64,19.52c-0.9,0.7-1.8,1-2.71,1c-4.35,0-8.63-6.71-9.56-6.71l-0.16,0.11
				c-0.62,1.51,7.57,5.66-1.45,26.93c-4.12-2.39-1.83-1.92-6.59-7.59c-1.76-1.48-3-2.41-3.47-2.41c-0.54,0-0.15,1.08,1.42,3.71
				c5.34,6.65,6.59,21.86,4.75,25.96c-4.39-1.91-3.26-5.41-8.43-10.19c-0.37,1.52,0.71,7.63,3.55,12.59l-0.3,0.11l0.86,0.75
				c0.81,1.29,1.73,2.52,2.81,3.5c9.24,8.33,12.51,18.4,12.69,20.4c0.73,7.58-1.65,17.57-2.55,27.36
				c-4.31-0.63-7.99-12.56-9.18-12.56l-0.09,0.03c-1.32,0.85,0.54,12.33,8.91,20.14c4.05,11.83,2.43,18.18,1.35,18.61l-0.11,0.02
				c-1.4,0-5.19-10.16-7.65-10.16l-0.64,0.25c11.92,30.3,3.58,40.83,0.42,50.16c-2.46-9.57-3.7-16.71-6.77-27.56
				c-4.91,3.84-6.99,9.11-11.15,14.41c-1.27,1.24-2.48,2.56-3.61,3.98c-0.41,0.38-0.78,0.76-1.21,1.16c0-2.2-0.24-4.95-0.64-8.02
				c-0.56-12.27-4.98-24.47-6.26-27.77c-1.91-6-3.99-10.99-5.9-13.33h-0.01c-0.38,0-10.26,26.8-14.75,38.75
				c-5.77,15.24-6.72,34.15-0.44,49.18c0.05,0.21,0.08,0.38,0.11,0.61c-4.8-7-8.12-15.89-10-24.85c-1.19-5.66-1.8-11.32-1.81-16.55
				c0-5.91,0.75-11.22,2.29-15.35c0.33-0.94,0.72-1.78,1.14-2.57c1.33-2.49,2.99-4.37,5.12-5.26c1.03-2.62-0.57-10.89-3.13-10.89
				l-0.47,0.09c-0.83,4.48-0.29,8.31-3.99,12.68c-9.74-2.84-5.3-14.71-4.42-18.64c12.01-14.42,5.45-18.27,4.28-18.27l-0.12,0.02
				c-1.38,3.48-2.56,7.73-6.43,9.31c-8.1-13.92-2.9-35.77,12.49-52.09c0.13-1.36-0.13-1.9-0.69-1.9c-1.87,0-7.08,6.08-10.84,6.08
				l-0.26-0.02c-1.28-11.73,2.98-32.11,24.68-32.86c-4.14-1.21-6.34-1.97-7.36-5.43c6.55-0.97,27.16-2.55,23.77-18.79
				c-1.95,1.96-2.58,4.88-7.95,8.14c-1.72,1.04-3.48,1.63-5.1,1.63c-1.8,0-3.41-0.74-4.49-2.41c8.36-2.77,6.98-11.99-1.81-11.99
				c-1.28,0-2.69,0.18-4.26,0.61c-0.42,0.12-0.86,0.17-1.31,0.17c-2.65,0-5.66-1.88-7.25-4.38c-0.63-0.98-1.04-2.04-1.12-3.16
				c0.67,0.67,1.56,0.99,2.47,1.16c0.42,0.06,0.78,0.18,1.22,0.18c2.69,0,5.83-1.35,7.95-2.74c1.3-0.83,2.5-1.41,3.68-1.9
				c0.95-0.38,1.85-0.67,2.73-0.88c0.82-0.18,1.62-0.29,2.38-0.34c0.23-0.01,0.47-0.04,0.68-0.04c0.67,0,1.26,0.11,1.87,0.21
				c7.3,1.06,11.85,7.91,13.16,9.88c0.57,0,6.29-13.19-13.65-16.74c-1.55-4.36-5.68-11.9-17.45-11.9c-0.75,0-1.49,0.03-2.28,0.09
				c-1.92-6.77-5.49-9.18-8.91-9.18c-4.2,0-8.1,3.65-8.48,7.4c-0.02,0.18-0.07,0.35-0.07,0.53l-0.04,0.4l-0.41-0.32l-0.39-0.34
				c-12.89-10.43,1.17-23.24,6.83-25.25c3.7,0.31,3.25,11.14,8.68,11.14c0.46,0,0.94-0.07,1.5-0.24c1.69-0.5-5.48-8.74-2.73-12.48
				c1.21-0.69,2.17-0.96,2.98-0.96C270.78,51.71,271.58,54.97,273.13,54.97 M145.15,64.36c10.04,0,24.19-6.79,30.71-8.29
				c2.63-0.6,5.02-0.88,7.17-0.88c20.4,0,20.04,25.24,17.91,36.27c-0.8,4.15,6.94,7.21,11.79,7.21c0.44,0,0.89-0.02,1.29-0.08
				c-2.99,7.35-6.76,9.32-10.39,9.32c-4.22,0-8.25-2.64-10.61-2.64c-1.03,0-1.75,0.49-2.04,1.88c-0.66,3.02-9.72,5.38-9.68,12.87
				c0.07,10.25,4.07,4.64,4.43,12.59c0.41,7.68-3.28,1.7-2.44,10.03c0.42,4.21,2.92,5.55,6.44,5.55c6.28,0,15.75-4.31,22.3-4.31
				c1.29,0,2.47,0.17,3.48,0.58c4.12,1.62,6.97,5.12,10.79,5.12l1.13-0.09c1.27-1.07,0.7-6.07,0.48-7.86
				c-0.44-4.19-8.19-4.67-11.82-10.41c-3.15-4.98,3.57-20.02,7.21-24.44c5.21,24.81,28.47,17.04,31.94,43.13
				c2.07,6.92-6.77,14.57-1.05,25.39l0.15,1.43l0.75,0.07c0.15,0.23,0.25,0.47,0.44,0.71c-6.14,5.94-13.53,34.2-0.67,47.46
				c-2.19,6-5.04,19.88,6.37,27.97c-2.38,5.09-2.95,10.9-2.25,17.02c0.04,3.24,0.28,6.65,0.74,10.1c-1.35-3.15-2.92-6.49-4.72-9.86
				c-3.67-8.89-9.65-20.8-24.04-26.6c-0.96-0.5-1.95-0.94-2.94-1.34c-0.35-0.13-0.7-0.23-1.02-0.35c-0.68-0.25-1.37-0.49-2.06-0.69
				c-0.4-0.12-0.81-0.21-1.22-0.31c-0.66-0.15-1.31-0.3-1.99-0.42c-0.45-0.07-0.88-0.13-1.32-0.18c-0.37-0.05-0.72-0.12-1.08-0.15
				c-0.55-0.05-1.11-0.08-1.69-0.1l-0.7-0.03l0.01-0.01c0,0-0.39-0.01-1.03-0.01c-2.63,0.01-9.13,0.44-5.86,4.18l0.66,0.57
				l2.63,2.26c5.1,8.75,11.84,8.41,10.38,29.38c-0.15,2.09-0.6,2.89-1.23,2.89c-0.3,0-0.64-0.22-0.99-0.51
				c-0.94-2.12-2.35-3.48-3.74-4.49c-0.38-0.47-0.73-0.86-1.05-1.14c-2.44-2.16-4.6-3.45-6.45-5.76c-0.88-1.47-1.73-3.28-2.58-5.71
				l-1.69-4.91c-0.24-1.12-0.46-2.32-0.66-3.67c-17.33,13.59-15.63,30.03-14.56,38.39c-0.01-0.08-3.84-10.47-8.19-21.13
				c-0.23-0.57,17.6-22.01,20.45-27.11c0.67-1.2,1.29-2.37,1.9-3.48l0.06,0.03l0.07-0.11h-0.08c8.27-15.08,10.54-20.67,9.35-20.67
				c-3.37,0-34.43,44.86-34.66,44.86c-3.19-7.4-5.98-13.75-7.85-15.75c0.47-0.9,10.33-11.92,14.81-21.23
				c7.6-15.83,9.83-21.58,8.98-21.58c-2.2,0-25.37,39.49-27.06,39.49l-0.06-0.01c-1.39-1.29-2.69-2.66-3.87-3.76l0.01-0.01
				l-0.21-0.16c-0.38-0.25-1.21-0.73-2.08-0.73c-0.97,0-1.98,0.59-2.46,2.77c-0.02,0.17-0.07,0.33-0.1,0.52l0.03-0.01
				c-0.17,0.99-0.35,1.81-0.54,2.55c-0.56,3.37-1.2,7.85-1.04,10.16c-4.63,6.2-14.59,15.93-21.56,20.74c0,0-1.73-16.08-1.26-16.67
				c3.5-4.24,17.19-18.9,19.98-23.28c13.11-20.61,16.92-27.93,15.68-27.93c-3.04,0-36.66,44.42-37.14,44.42l-0.02-0.01
				c-0.46-2.83-4.14-7.5-8.04-11.49c0,0,14.78-20.16,18.42-27.64c7.14-14.7,9.12-20.14,8.13-20.14c-2.87,0-30.45,45.12-30.99,45.12
				c-1.19-0.63-1.31-0.61-2.72-1.09c-1.39-0.47,1.53-16.43,3.46-26.04c1.13-5.77,1-8.36,0.2-8.36c-1.87,0-7.35,13.8-9.25,34.78
				c-0.28,0.06-0.59,0.1-0.93,0.14c-1.68,0.01-5.76,0.17-8.4,1.38c-0.35,0.16-0.65,0.31-0.95,0.52c0,0-0.38,0.29-0.4,0.84
				c0,0.28,0.08,0.65,0.4,1.08l0.91,1.24c0,0,3.16,3.04,4.8,7.21v0.01c0.43,1.1,0.78,2.24,0.91,3.45l0.05-0.2
				c0.88,5.41-1.15,12.19-1.51,18.9l-0.01,0.17c-0.04,0.66-0.04,1.35-0.04,2c0,0.19,0,0.36,0,0.54c0.02,0.57,0.05,1.12,0.11,1.67
				c0.02,0.24,0.05,0.48,0.08,0.72c0.05,0.49,0.14,0.98,0.23,1.5c0.05,0.27,0.11,0.52,0.17,0.78c0.11,0.47,0.25,0.95,0.4,1.42
				c0.1,0.24,0.17,0.52,0.26,0.79c0.19,0.48,0.41,0.96,0.65,1.44c0.11,0.23,0.21,0.46,0.32,0.67c0.39,0.7,0.82,1.37,1.32,2.04
				c3.25,4.28,3.43,3.57,2.79,6.38c-1.23-0.09-2.33-0.17-3.37-0.17c-3.3,0-5.72,0.77-8.2,4.16c-6.34-28.86-6.15-42.75-4.66-72.08
				c0.66-13.33,5.04-33.5,3.03-33.88h-0.01c-2.03,0-32.12,77.48-39.39,92.71c-12.76-4.29,7.93-71.64,34.2-104.06
				c0.48-1.98,0.27-2.81-0.46-2.81c-3.04,0-15.18,14.84-23.02,21.53c-7.66,6.54-17.07,14.78-27.36,14.78
				c-1.67,0-3.36-0.21-5.07-0.69c15.76-16.67,51.89-47.85,55.91-55.64c0.38-0.75,0.36-1.06,0.01-1.06
				c-2.36,0-19.64,13.95-40.32,13.95c-4.52,0-9.21-0.67-13.95-2.31c19.15-10.27,63.85-33.09,63.94-48.99l-0.41-0.4
				c-0.39,0-22.53,13.92-42.65,13.92c-4.81,0-9.53-0.8-13.79-2.79c16.42-9.08,73.28-45.21,88.83-55.47
				c1.59,0.34,2.97,0.49,4.18,0.49c4.41,0,6.63-1.9,8.47-3.17c-1.7,0.09-4.53,0.42-7.47,0.42c-7.32,0-15.32-2.04-8.22-14.61
				C135.79,62.52,139.91,64.36,145.15,64.36 M398.79,62.14c5.35-4.13,6.29-3.85,11.25-5.8c1.8-0.71,4.06-1.02,6.59-1.02
				c9.37,0,22.53,4.25,30.62,8c3.67,1.66,7.85,2.83,12.14,2.83c1.52,0,3.1-0.16,4.65-0.49c-0.07,3-2.16,4.61-4.26,5.23
				c-3.22,1-7.04,0-6.79,2.34c0.15,1.38,4.56,1.61,7.3,2.36c13.83,3.78,31.34,15.35,24.86,15.35c-0.67,0-1.59-0.12-2.81-0.39
				l-0.07-0.01c-1.03,0,9.58,8.37,17.65,19.17l29.08,28.26c-0.22,0.26-0.62,0.43-1.35,0.43c-3.76,0-15.28-5.05-42.5-30.55
				c-4.58,4.11,39.32,37.18,57.43,72.29l-0.5,0.1c-3.74,0-24.13-7.74-31.8-15.62c-11.7-12.11-25.01-41.62-31.56-41.62
				c-0.48,0-0.91,0.14-1.3,0.46c-0.72,0.28,23.82,38.54,35.97,61.21c6.13,11.48,11.18,27.93,11.59,40.32
				c1.69,53.01-5.01,56.5-6.79,56.5l-0.45-0.08c-14.32-48.16-21.03-104.08-41.9-129.88c-0.69-0.84-1.11-1.25-1.31-1.25
				c-2.2,0,23.73,50.49,24.95,96.35c-5.92,1.56-21.48,7.74-25.24,13.89c2-33.66-8.88-66.74-12.33-74.73
				c-0.87-2.01-1.47-2.89-1.84-2.89c-2.54,0,4.92,40.63,5.51,51.01c-0.27,0-29.11-37.2-32.61-37.2c-1.34,0,1.11,5.61,10.49,21.11
				c8.75,14.46,22.4,23.87,22.41,24.12c0.24,10.04-0.43,17.46-2.35,22.83l-0.18,0.06c-3.87,0-43.11-52.22-47.42-52.22
				c-1.54,0,1.3,6.56,11.67,24.34c4.96,8.54,34.11,34.37,33.87,34.89c-1.85,3.93-5.13,9.66-9.65,13.85
				c-0.15-0.16-1.05-0.86-2.33-1.83c-0.61-0.52-1.26-1.07-1.9-1.61c-9.17-7.76-10.73-9.09-12.17-9.31
				c-0.27-0.25-0.47-0.44-0.47-0.53c-0.93-5.8-1.17-11.38-5.36-11.38c-0.52,0-1.14,0.11-1.78,0.29l-1.63,0.59
				c-0.61,0.28-1.28,0.59-2.01,1.01c0,0-19.62-22.86-23.07-22.86c-1.21,0-0.44,2.81,3.86,10.39c7.24,12.78,12,14.18,13.92,16.46
				c0,0-5.54,7.52-7.33,15.52l-0.25,0.19c-2.22,0-18.06-18.35-21.16-18.35c-1.03,0-0.61,2.11,2.26,7.67
				c3.82,7.41,17.67,15.51,17.53,16.04c-0.43,1.42-0.86,2.82-1.26,4.2l-5.76-2.02c-1-1.62-2.46-3.08-4.15-3.65
				c-0.9-0.34-2.25-0.46-3.82-0.46c-5.21,0-12.66,1.37-12.66,1.37c0.84-4.54-1.76-12.89-3.27-22.76c-0.12-1.48-0.13-2.93,0.04-4.3
				l0.45-3.46l0.06,0.02c0.03-0.24,0.01-0.43,0.01-0.67c0.04-2.59-1.05-3.38-2.33-3.38c-0.37,0-0.77,0.07-1.15,0.18
				c-1.45,0.4-2.78,1.32-2.78,1.32l0.06,0.01c-4.28,2.57-8.97,7.17-10.42,10.16c-0.08,1.33-0.17,2.5-0.28,3.63
				c-0.05,0.37-0.16,0.73-0.2,1.11c-0.54,5.6-1.61,9.84-2.93,13.28c-1.98,4.09-4.49,5.99-7.03,12.79c-0.7,1.19-1.3,2.44-1.82,3.74
				c-4.73-7.45,0.64-17.76-4.59-24.56c-1.1-1.44-2.03-2.8-2.88-4.12c-0.04-0.28-0.09-0.47-0.13-0.77l-3.7-7.02
				c-1.64-4.67-2.29-9.55-2.89-16.02c1.73-0.97,9.27-9.29,2.4-26.74c-1.12-27.45,11.15-37.93-10.77-57.13
				c1.84-0.59,3.17-14.34,3.17-14.35c2.98,1.59,5.3,2.25,7.15,2.25c8.13,0,6.95-12.92,12.09-15.88c9.99-5.79,8.18-11.81,3.69-19.3
				c28.56,8.14-1.29,27.66,11.64,28.08c0.51,0.03,1,0.04,1.5,0.04c8.55,0,14.39-2.46,18.25-8.43c4.33-6.67-0.75-10.74,11.37-21.55
				c1.21-1.08,4.42-8.29-5.19-10.27c-2.11-0.45,0.03-8.66,0.03-8.66c-5.99,5.05-8.78,11.71-15.54,11.71c-1.93,0-4.21-0.55-6.95-1.83
				c-2.01-0.95-3.8-1.3-5.37-1.3c-3.41,0-5.88,1.65-7.67,2.5c0,0-1.3-5.18,3.92-6.93c13.54-4.54,16.89-9.95,16.14-12.89
				c-1.82-7.05-2.36,0-1.96-7.42c0.16-2.95,3.58-6.96,6.42-10.36c4.96-5.98,9.12-7.53,12.28-7.53
				C395.75,60.56,397.71,61.68,398.79,62.14 M242.53,99.87c-3.82,0-7.15-1.03-9.7-3.9c-4.51-5.06,3.48-11.3,3.48-11.3
				c0.54,6.01,4.29,7.69,9.43,7.69c6.49,0,15.18-2.67,22.48-2.67c1.87,0,3.64,0.17,5.25,0.61c3.15,0.79,5.48,2.75,6.96,4.91
				c-2.12-0.92-4.45-1.29-6.91-1.29C263.64,93.92,251.72,99.87,242.53,99.87 M282.56,95.92l-0.4-0.22l0.22-0.09L282.56,95.92z
				 M269.9,100.84l-0.56-0.07l-0.06-0.02c-1.51-0.03-3.63-0.35-6.08-1.37c3.6-0.92,7.14-1.66,10.31-1.66c1.18,0,2.25,0.14,3.24,0.34
				l-0.15,0.07c-0.41,0.23-0.8,0.46-1.22,0.72c-1.17,0.77-2.54,1.36-3.75,1.7C271.01,100.72,270.39,100.84,269.9,100.84
				 M376.25,110.85c4.99,0,8.45-2.46,11.3-5.32c0.8,1.13,1.96,1.9,3.29,2.18c2.11,0.43,2.91,1.09,3.03,1.38l-0.22,1.29
				c-8.72,7.88-9.6,13.14-10.29,17.37c-0.34,1.96-0.55,3.27-1.6,4.87c-2.79,4.35-6.96,6.27-13.88,6.36l0.43-0.91
				c1.98-4.17,4.95-10.44,2.13-16.63c-2.13-4.69-7-8.08-14.88-10.35l2.7-1.31l1.01-0.52c1.42-0.74,2.89-1.51,4.65-1.51
				c1.08,0,2.21,0.28,3.43,0.85C370.62,110.12,373.53,110.85,376.25,110.85 M285.3,333.52c0.62,0-3.34-9.57-5.85-24.01
				c-0.08-0.5-0.17-1-0.25-1.51c-3.15-19.28-3.46-46.61,12.49-71.62c0,0,0.04,0.13,0.13,0.31c0.82,2.12,5.64,14.74,6.14,26.96
				c0.16,4.01-0.11,7.97-1.16,11.53c-2.74,9.25-0.18,19.48,0.33,25.28c0.04,0.57,0.07,0.83,0.09,0.83c0.25,0,0.53-15.56,10.61-28.25
				c1.24-1.22,2.34-2.41,3.3-3.59c1.59-1.6,3.35-3.1,5.34-4.49c1.28,10.32,11.18,26.33,1.79,43.46
				c-11.41,20.86-12.25,13.34-12.42,39.02c1.05-0.44,4-17.69,11.82-27.47c16.38-20.47,5.01-31.59,20.44-49.22
				c0.17-0.17,0.29-0.33,0.44-0.5c0.09,0.62,0.18,1.19,0.29,1.71c1.3,6.78,3.35,4.26,4.22,11.68c2.16,17.66-15.97,36.92-12.57,36.92
				h0.19c4.75-0.68,12.38-4.82,14.96-18.4c0,0,6.88,12.4,0.58,16.53c-11.41,7.48-13.78,15.55-12.01,24.6
				c8.83-10.51,20.68-22.13,19.64-36.85c-0.04-0.59-0.07-1.15-0.15-1.74c0.31-2.8,1.44-5.09,2.91-7.54
				c2.1-3.46,4.91-7.21,7.13-13.02c1.46-3.79,2.63-8.41,3.21-14.46c0.01-0.29,0.1-0.6,0.16-0.92c0.74-3.18,3.64-6.68,6.73-8.58
				c0.22-0.15,0.44-0.31,0.67-0.42c-0.22,1.71-0.21,3.45-0.09,5.18c0.79,10.68,6.5,21.85-2.81,34.76l0.42,0.09
				c2.47,0,9.11-8.1,18.66-8.1c1.87,0,3.85,0.31,5.93,1.05c-26.87,4.83-19.01,33.95-39.6,47.42c-6.21,4.07-5.14,8.63-7.02,9.15
				c16.61-0.94,29.74-18.84,33.94-23.55c0.46-0.5,0.83-0.9,1.07-1.06c0.48-0.33,0.91-0.61,1.38-0.91
				c12.43-8.39,18.03-12.01,22.85-20.68c0.13-0.19,0.2-0.33,0.27-0.47l0.07-0.14l0.03-0.06l0.01-0.01c0.1-0.21,0.2-0.43,0.31-0.63
				c0.68-1.28,1.33-2.67,1.99-4.18c0.09-0.23,0.2-0.44,0.29-0.66l0.17-0.42c0.82-1.93,1.65-4.08,2.53-6.5
				c2.9-7.69,0.78-11.1,11.03-21.49c4.48,10.26-2.02,31.49-3.6,36.06c-3.31,9.78-14.91,18.24-12.45,18.24
				c46.91-20.71,48.84-34.98,58.98-49.73c0.58-0.82,1.15-1.64,1.77-2.46c1.1-1.83,3.52-4.09,6.54-6.36
				c6.81-5.12,16.67-10.31,21.22-10.97c-1.61,3.27-8.45,8.77-8.78,14.69c-0.6,10.95-4.13,17.63-9.66,26.4
				c0.48,0.59,1.01,0.82,1.62,0.82c2.48,0,5.93-4.08,9.69-4.08l0.31,0.03c0.55,0.04,1.08,0.15,1.64,0.38
				c0.59,0.26,1.17,0.63,1.8,1.19c-0.81,0.27-1.54,0.63-2.27,1.01c-6.46,3.42-9.92,11.07-15.52,15.79c-4.7,4.64-10,7.74-15.62,9.93
				c-17.54,6.86-38.44,4.78-55.79,12.52c-20.76,7.6-35.81,26.79-57.6,31.66c-6.31,2.03-7.43,5.16-3.58,5.16l0.2-0.02h0.01
				c1.77,0,9.17,7.19,21.07,7.19c4.62,0,9.9-1.08,15.82-4.07c7.11-3.57,29.15-15.84,32.87-16.53
				c-11.93,11.34-17.91,21.51-28.57,27.5c-5.19,2.91-23.05,9.54-43.47,9.54c-5.28,0-10.71-0.46-16.14-1.51
				c-1.13-0.21-2.23-0.31-3.29-0.31c-9.95,0-17.03,8.63-14.59,8.63h0.09c1.86-0.52,3.79-0.79,5.66-0.79c4.54,0,8.94,1.57,11.93,5.49
				c4.79,3.78,10.97,8.12,17.24,8.12c3.77,0,7.57-1.56,11.19-5.77c1.79-2.07,7.38-5.5,14.51-5.5c5.52,0,11.94,2.05,18.19,8.41
				l-0.64-0.01c-13.71,0-13.55,23.64-37.36,23.64c-1.43,0-2.93-0.1-4.53-0.29c-9.24-0.05-28.15-18.38-37.43-18.38
				c-1.43,0-2.64,0.45-3.53,1.46c-11.91,13.39,25.6,26.08,9.36,42.93c-3.19,3.29-6.53,4.59-9.78,4.59
				c-11.7,0-22.42-16.71-22.42-16.71c3.76,1.61,8.85,2.94,13.01,2.94c5.92,0,9.96-2.76,5.59-11.5c-2.94-5.9-8.55-11.22-8.55-22.16
				l-0.47-0.4c-3.52,0-24.34,27.42-43.3,27.42c-4.64,0-9.16-1.65-13.31-5.74c-8.71-8.66-26.38-27.6-42.39-34.83
				c4.03-0.33,7.74-0.49,11.15-0.49c32.43,0,37.88,14.13,39.71,16.59c4.36,5.88,8.6,7.95,12.46,7.95c8.15,0,14.56-9.28,16.54-11.49
				c4.42-5.04,10.67-11.94,8.43-13c-9.56-4.53-19.9-6.98-29.66-6.98c-7.01,0-13.73,1.28-19.61,3.98
				c10.46-14.38,20.12-19.07,28.24-19.07c15.25,0,25.18,16.43,25.18,16.43l0.35,0.12c2.61,0-2.28-24.66-30.91-26.08
				c-0.49-0.01-0.98-0.04-1.47-0.04c-17.95,0-33.74,15.81-46.21,15.81h-0.02c-10.4-0.01-41.94-21.31-49.36-40.25
				c13.04,9.76,28.63,16.55,41.81,16.55c5.37,0,10.33-1.11,14.56-3.63c6.93-4.15,14.31-5.64,21.53-5.64
				c19.64,0,37.87,11.25,41.49,11.25l0.61-0.27c-6.02-4.7-18.04-20.1-45.69-20.1c-7.59,0-16.38,1.17-26.55,4.04
				c-4.07,2.34-7.6,3.26-10.79,3.26c-11.1,0-17.7-11.11-26.43-11.36c9.33-8.29,17.26-10.44,23.71-10.44
				c6.75,0,11.89,2.39,15.29,2.64c1.59,0-7.96-7.86-14.65-8.57c-48.12-5-79.87-17.57-84.42-19.46c-0.38-0.15-0.61-0.27-0.61-0.27
				l0.02-0.13c0.17-0.67,2.72-4.95,10.96-5.44c0.18-0.01,0.34-0.02,0.52-0.04c0.32-0.01,0.57-0.07,0.91-0.07
				c3.68,0,8.36,0.75,14.3,2.73c0,0-20.08-12.27-19.9-28.07c0.63-9.5,5.1-19.64-1.61-27.68c-0.16-0.19-0.3-0.4-0.48-0.59h0.62
				c0.21-0.02,0.44-0.03,0.66-0.03c28.32,0.01,7.78,41.09,28.69,51.79h0.01c0.34,0-6.17-10.14,3.19-18
				c2.88,8.13,8.52,13.64,14.22,17.07c0.69,0.41,1.41,0.83,2.11,1.2c2.24,1.13,4.44,1.98,6.43,2.51c1.77-0.96,3.97-4.75,3.98-4.75
				c-4.6-7.65-6.87-16.04-7.57-25.14c-0.28-3.6-0.31-7.3-0.14-11.13c0.15-3.25,0.4-6.54,0.81-9.95l0.33-0.17
				c1.71,0.07,4.62,6.04,6.66,10.44c4.42,9.48,4.3,23.11,13.09,34.36c4.85,6.17,7.86,12.38,12.23,15.36
				c1.89-4.37,0.49-11.94,0.2-13.94c-0.98-7.08-5.38-19.46,6.46-30.48l0.3-0.29c0.96,2.81,2.01,4.97,3.04,6.7
				c2.91,4.84,5.94,6.27,8.17,7.76c1.37,0.91,2.45,1.88,3.01,3.68c0.15,0.45,0.26,0.93,0.35,1.51c1.44,11.11,0.95,9.33-0.16,17.84
				c0.57,11.75,11.24,15.06,20.7,22.56c21.38,11.61,35.55,17.91,44.84,32.8c4.55-25.11-63.25-30.14-54.51-78.61
				c-0.91-19.11,2.28-20.95-10.82-32.37c-0.19-0.15-0.32-0.27-0.49-0.45c3.86,0.12,7.46,1.21,10.84,2.86
				c9.62,4.75,17.2,14.81,22.63,24.88c1.92,3.61,3.59,7.19,4.97,10.53c2.9,6.98,4.61,12.88,5.05,15.34
				c2.73,14.98,11.82,15.76,24.3,35.29L285.3,333.52z M162.06,291.99c-0.35-0.18-0.69-0.38-1.02-0.57
				c-0.81-0.68-1.95-1.79-3.43-2.99c-3.63-4.05-7.03-7.38-8.79-12.1c-0.42-3.31,2.25-3.56,9.82-11.06c0.04,1.37,0.11,2.73,0.21,4.06
				c0,5.11,0.03,9.63,1.65,15.31C162.14,289.95,162.56,291.83,162.06,291.99 M439.39,298.63c-2.37-2.05-7.6-4.16-7.48-4.65
				l0.06-0.17c1.37-5.04,1.39-8.56,2.06-13.02c0.24-1.64,0.3-1.79,0.39-2.75c0.01-0.19,0.04-0.34,0.04-0.61l0.02-0.01
				c0.45,0,8.04,6.51,12.17,10c1.4,1.19,2.39,2.02,2.6,2.14c-3.45,4.3-6.4,5.9-9.67,8.9L439.39,298.63z M235.63,315.62
				c-0.6-0.41-1.2-0.79-1.78-1.18c-7.24-4.79-11.12-7.61-11.56-13.61c0.2-1.38,0.36-2.48,0.51-3.4c0.72-4.65,0.78-5.91-0.19-13.62
				c0.26-0.01,0.57-0.04,0.93-0.1C222.95,297.25,228.21,307.49,235.63,315.62 M377.06,325.51c0-0.04,5.21-16.82,16.52-25.04
				c2.64-1.92,4.19-2.9,5.41-3.54l8.6-1.53c-0.67,1.92-1.34,3.68-2.04,5.07c-1.3,2.6-13.81,13.09-21.84,19.63l-1.21,0.84
				c-0.54,0.36-1.06,0.87-1.7,1.56C378.56,324.32,377.06,325.5,377.06,325.51 M427.06,307.69c-0.51,0-0.61-0.39-0.16-1.25
				c1.51-3.05,2.64-5.62,3.51-7.91c0.59,0.36,1.22,0.7,1.81,1c1.12,0.61,2.74,1.48,3.74,2.2
				C431.56,305.57,428.23,307.69,427.06,307.69 M465.92,349.24c-3.63,0-4.49-13.22-0.55-26.4c5.3-2.31,10.35-5.43,14.96-9.96
				c1.9-1.62,3.47-3.47,5.01-5.32c-2.97,14.06-7.91,27.14-16.43,39.3C467.81,348.51,466.78,349.24,465.92,349.24 M119.7,344.2
				c-0.67,0-1.34-0.52-1.91-1.65c-6.52-12.36-9.09-22.64-12.56-34.36c4.95,3.36,10.78,4.83,16.11,7.12
				C126.91,329.85,123.23,344.2,119.7,344.2 M198.27,357.61c-10.51,0-23.79-5.01-36.08-13.5l4.69,0.13
				c2.73,0.08,5.65,2.08,9.04,4.39c4.76,3.26,10.18,6.97,17.52,6.97c4.12,0,8.22-1.17,12.53-3.57c8.91-2.48,17.23-3.72,24.8-3.72
				c0.73,0,1.44,0.01,2.13,0.03c-8.26,0.22-15.79,2.32-22.41,6.26C207.16,356.58,203.03,357.61,198.27,357.61 M254.95,421.62
				c-2.83,0-5.81-2.05-8.81-6.11l-0.37-0.63c-1.54-2.48-4.85-7.88-13.28-12.07l0.06-0.01c5.15-2.38,11.11-3.57,17.71-3.57
				c7.9,0,16.16,1.71,24.12,4.97c-1.65,2.17-4.19,5.06-5.66,6.73l-0.66,0.75c-0.26,0.3-0.61,0.73-1.04,1.24
				C264.92,415.51,259.95,421.62,254.95,421.62 M294.07,444.78c-3.11,0-7.53-1.01-11.26-2.59l-11.39-4.77
				c5.84-4.27,11-9.15,14.97-12.91l1.08-1.04c1.28,5.22,3.7,9.09,5.77,12.37c0.89,1.41,1.72,2.75,2.37,4.02
				c1.53,3.13,1.37,4.35,1.33,4.51C296.86,444.36,296.13,444.78,294.07,444.78"/>
		</g>
	</g>
</g>
<g id="TMs" class="st3">
	<g class="st4">
		<path class="st2" d="M406.6,402.9h-2.48v-11.72h-4.43v-2.28h11.35v2.28h-4.43V402.9z"/>
		<path class="st2" d="M420.52,399.45h-0.08l-4.38-6.56v10h-2.44v-14h2.62l4.25,6.62l4.25-6.62h2.62v14h-2.44v-10.04L420.52,399.45z
			"/>
	</g>
</g>
</svg>
