<svg width="713" height="95" viewBox="0 0 713 95" fill="white" xmlns="http://www.w3.org/2000/svg">
<path d="M65.408 6.056C64.512 8.488 63.616 10.536 62.72 12.2C61.888 13.8 60.992 15.112 60.032 16.136C59.072 17.16 58.016 17.896 56.864 18.344C55.712 18.728 54.432 18.92 53.024 18.92C51.424 18.92 49.344 18.664 46.784 18.152V69.416C48.384 69.416 49.984 69.256 51.584 68.936C53.248 68.616 54.848 68.2 56.384 67.688C57.92 67.176 59.328 66.6 60.608 65.96C61.952 65.256 63.104 64.52 64.064 63.752L65.024 65.288C58.88 74.056 50.208 78.44 39.008 78.44C29.664 78.44 22.08 75.528 16.256 69.704C10.304 63.88 7.328 56.2 7.328 46.664C7.328 43.272 7.84 40.072 8.864 37.064C9.952 33.992 11.424 31.144 13.28 28.52C15.2 25.832 17.504 23.4 20.192 21.224C22.88 18.984 25.856 17 29.12 15.272C27.52 15.144 26.048 15.048 24.704 14.984C23.424 14.92 22.272 14.888 21.248 14.888C17.408 14.888 13.92 16.232 10.784 18.92C7.776 21.544 4.992 26.376 2.432 33.416L0.608 32.744C1.696 25.64 3.328 20.04 5.504 15.944C6.592 13.896 7.744 12.2 8.96 10.856C10.24 9.448 11.616 8.36 13.088 7.592C14.56 6.75999 16.192 6.18399 17.984 5.86399C19.776 5.48 21.728 5.288 23.84 5.288C25.824 5.288 28.16 5.48 30.848 5.86399C33.536 6.248 36.64 6.792 40.16 7.496C43.68 8.2 46.912 8.744 49.856 9.128C52.8 9.448 55.456 9.608 57.824 9.608C58.784 9.608 59.68 9.32 60.512 8.744C61.408 8.104 62.624 6.824 64.16 4.904L65.408 6.056ZM45.056 17.864C44.672 17.8 44.032 17.672 43.136 17.48C42.24 17.224 41.568 17.064 41.12 17V51.656L25.664 62.216C30.144 66.888 36.608 69.288 45.056 69.416V17.864ZM30.848 15.464H30.656C22.784 23.08 18.848 31.784 18.848 41.576C18.848 49.576 20.736 56.04 24.512 60.968L27.776 58.664C29.824 57.192 30.848 54.12 30.848 49.448V15.464ZM98.7005 27.56C97.8045 28.136 97.3565 29.608 97.3565 31.976V67.88C97.3565 70.184 97.1005 72.328 96.5885 74.312C96.1405 76.296 95.3085 78.12 94.0925 79.784C92.8765 81.512 91.2765 83.08 89.2925 84.488C87.3085 85.96 84.8445 87.304 81.9005 88.52L80.3645 87.848C82.9245 85.736 84.7485 83.464 85.8365 81.032C86.9245 78.536 87.4685 75.144 87.4685 70.856V30.824C86.9565 30.504 86.1245 30.024 84.9725 29.384C83.8845 28.68 82.9885 28.104 82.2845 27.656L79.2125 30.056V67.976C79.4685 68.232 80.5565 69.032 82.4765 70.376V70.568C80.6845 72.04 79.2125 73.32 78.0605 74.408C76.9085 75.496 76.0445 76.36 75.4685 77C74.1885 75.912 72.8765 74.888 71.5325 73.928C70.2525 72.904 68.9725 71.944 67.6925 71.048V70.664C68.7805 70.152 69.3245 68.616 69.3245 66.056V8.648C69.3245 6.216 69.0045 4.584 68.3645 3.752L68.7485 3.56C69.4525 3.752 70.2205 4.232 71.0525 4.99999C71.8845 5.768 72.4605 6.6 72.7805 7.496H72.9725C74.7645 3.592 77.2605 1.16 80.4605 0.199999L80.7485 0.391996C79.7245 1.99199 79.2125 4.136 79.2125 6.824V27.944C79.7885 27.496 80.8125 26.632 82.2845 25.352C83.7565 24.072 85.6765 22.408 88.0445 20.36C88.4925 20.68 88.9725 21.032 89.4845 21.416C89.9965 21.736 90.5405 22.088 91.1165 22.472C92.3325 23.24 93.7085 24.104 95.2445 25.064C96.7805 26.024 97.9325 26.76 98.7005 27.272V27.56ZM133.243 38.888C132.731 39.272 132.091 39.72 131.323 40.232C130.619 40.68 129.819 41.16 128.923 41.672C128.027 42.184 126.939 42.76 125.659 43.4C124.443 44.04 123.099 44.776 121.627 45.608C120.155 46.44 118.939 47.112 117.979 47.624C117.019 48.072 116.347 48.392 115.963 48.584V63.272C120.827 66.408 124.155 67.976 125.947 67.976C126.587 67.976 127.259 67.624 127.963 66.92L128.827 66.056L130.267 67.592C128.411 69.384 126.715 71.08 125.179 72.68C123.643 74.216 122.267 75.656 121.051 77C118.171 75.208 115.355 73.544 112.603 72.008C109.851 70.408 107.131 68.968 104.443 67.688V67.304C105.531 66.408 106.075 64.84 106.075 62.6V28.04C112.027 26.44 117.787 23.848 123.355 20.264C124.955 23.784 126.587 27.08 128.251 30.152C129.915 33.224 131.579 36.136 133.243 38.888ZM124.699 41.48C122.651 38.152 120.923 35.272 119.515 32.84C118.171 30.344 117.147 28.264 116.443 26.6L115.963 26.696V46.088C118.203 45 120.027 44.072 121.435 43.304C122.907 42.536 123.995 41.928 124.699 41.48ZM222.827 8.55199C221.227 10.792 219.627 12.904 218.027 14.888C216.427 16.872 214.827 18.696 213.227 20.36C208.363 18.568 203.691 16.648 199.211 14.6V69.896C199.531 69.96 200.075 69.992 200.843 69.992C201.611 69.992 202.539 69.992 203.627 69.992C210.539 69.992 216.363 68.168 221.099 64.52L221.867 65.672C220.459 67.592 218.891 69.352 217.163 70.952C215.499 72.552 213.611 73.896 211.499 74.984C209.387 76.072 207.019 76.904 204.395 77.48C201.771 78.12 198.827 78.44 195.563 78.44C185.643 78.44 177.643 75.592 171.563 69.896C165.611 64.264 162.635 56.328 162.635 46.088C162.635 39.304 164.651 32.936 168.683 26.984C172.843 20.904 177.195 16.776 181.739 14.6L182.987 15.464C180.235 18.024 178.027 21.544 176.363 26.024C174.827 30.44 174.059 34.792 174.059 39.08C174.059 47.72 175.787 54.536 179.243 59.528C180.779 58.376 181.835 57.064 182.411 55.592C182.987 54.12 183.275 52.2 183.275 49.832V21.32C186.155 19.144 189.163 16.744 192.299 14.12C195.499 11.432 198.923 8.488 202.571 5.288C204.811 6.184 206.731 6.952 208.331 7.592C209.995 8.168 211.339 8.616 212.363 8.936C214.347 9.57599 216.331 9.89599 218.315 9.89599C219.339 9.89599 220.363 9.09599 221.387 7.496L222.827 8.55199ZM197.483 13.736L196.427 13.256L193.547 15.56V51.944C191.179 53.416 188.875 54.888 186.635 56.36C184.395 57.832 182.219 59.304 180.107 60.776C184.075 65.768 189.867 68.776 197.483 69.8V13.736ZM256.107 27.56C255.211 28.136 254.763 29.608 254.763 31.976V67.88C254.763 70.184 254.507 72.328 253.995 74.312C253.547 76.296 252.715 78.12 251.499 79.784C250.283 81.512 248.683 83.08 246.699 84.488C244.715 85.96 242.251 87.304 239.307 88.52L237.771 87.848C240.331 85.736 242.155 83.464 243.243 81.032C244.331 78.536 244.875 75.144 244.875 70.856V30.824C244.363 30.504 243.531 30.024 242.379 29.384C241.291 28.68 240.395 28.104 239.691 27.656L236.619 30.056V67.976C236.875 68.232 237.963 69.032 239.883 70.376V70.568C238.091 72.04 236.619 73.32 235.467 74.408C234.315 75.496 233.451 76.36 232.875 77C231.595 75.912 230.283 74.888 228.939 73.928C227.659 72.904 226.379 71.944 225.099 71.048V70.664C226.187 70.152 226.731 68.616 226.731 66.056V8.648C226.731 6.216 226.411 4.584 225.771 3.752L226.155 3.56C226.859 3.752 227.627 4.232 228.459 4.99999C229.291 5.768 229.867 6.6 230.187 7.496H230.379C232.171 3.592 234.667 1.16 237.867 0.199999L238.155 0.391996C237.131 1.99199 236.619 4.136 236.619 6.824V27.944C237.195 27.496 238.219 26.632 239.691 25.352C241.163 24.072 243.083 22.408 245.451 20.36C245.899 20.68 246.379 21.032 246.891 21.416C247.403 21.736 247.947 22.088 248.523 22.472C249.739 23.24 251.115 24.104 252.651 25.064C254.187 26.024 255.339 26.76 256.107 27.272V27.56ZM278.553 7.496C275.161 10.312 271.417 13 267.321 15.56L264.249 12.2C266.937 9.512 269.177 7.176 270.969 5.192C272.761 3.144 274.105 1.48 275.001 0.199999C275.449 0.775999 275.961 1.672 276.537 2.888C277.177 4.104 277.849 5.64 278.553 7.496ZM279.417 69.896L271.929 77C270.457 75.912 268.953 74.824 267.417 73.736C265.945 72.648 264.409 71.592 262.809 70.568V70.184C263.897 69.48 264.441 67.976 264.441 65.672V29.96L263.193 29.192C261.913 28.36 260.665 27.944 259.449 27.944L259.353 27.56L266.841 20.36C268.249 21.448 269.689 22.536 271.161 23.624C272.697 24.712 274.297 25.8 275.961 26.888V27.272C274.873 27.976 274.329 29.384 274.329 31.496V67.496C276.505 68.904 278.137 69.608 279.225 69.608L279.417 69.896ZM311.365 27.176C311.045 27.496 310.565 27.976 309.925 28.616C309.285 29.256 308.517 30.056 307.621 31.016C306.725 31.976 305.989 32.744 305.413 33.32C304.901 33.896 304.549 34.28 304.357 34.472H304.261C302.469 33.576 300.773 32.488 299.173 31.208C297.573 29.928 296.037 28.488 294.565 26.888L294.181 27.08V63.272C298.853 66.344 302.501 67.88 305.125 67.88C305.893 67.88 306.533 67.624 307.045 67.112L307.909 66.152L309.445 67.592L300.133 77C298.149 75.72 295.685 74.312 292.741 72.776C289.861 71.24 286.501 69.544 282.661 67.688V67.304C283.749 66.6 284.293 65.288 284.293 63.368V31.016C287.237 29.416 290.085 27.752 292.837 26.024C295.589 24.232 298.245 22.344 300.805 20.36C306.053 25.224 309.509 27.4 311.173 26.888L311.365 27.176ZM345.1 69.896L337.804 77C336.652 76.104 335.34 75.112 333.868 74.024C332.396 72.936 330.732 71.752 328.876 70.472L321.292 77C319.692 75.72 318.028 74.472 316.3 73.256C314.572 71.976 312.78 70.696 310.924 69.416V69.032C312.012 68.328 312.556 66.728 312.556 64.232V53.384C314.22 52.552 315.756 51.752 317.164 50.984C318.636 50.216 319.948 49.48 321.1 48.776C318.988 48.008 317.26 46.728 315.916 44.936C314.572 43.144 313.9 41 313.9 38.504C313.772 37.16 313.9 35.88 314.284 34.664C314.668 33.384 315.02 32.36 315.34 31.592C315.404 31.4 315.532 31.144 315.724 30.824C315.98 30.44 316.236 30.088 316.492 29.768C316.748 29.384 316.972 29.064 317.164 28.808C317.356 28.552 317.484 28.36 317.548 28.232C317.612 28.04 318.06 27.496 318.892 26.6C319.276 26.152 319.564 25.832 319.756 25.64C319.948 25.384 320.076 25.224 320.14 25.16C320.908 24.2 321.58 23.336 322.156 22.568C322.732 21.736 323.244 21 323.692 20.36C328.876 22.6 332.94 24.36 335.884 25.64C338.892 26.92 340.812 27.72 341.644 28.04V28.424C340.556 29.32 340.012 30.824 340.012 32.936V67.4C340.268 67.656 340.62 67.944 341.068 68.264C341.516 68.52 341.964 68.776 342.412 69.032C342.924 69.288 343.404 69.48 343.852 69.608C344.3 69.736 344.652 69.736 344.908 69.608L345.1 69.896ZM330.124 33.32C326.028 30.888 323.404 29.672 322.252 29.672C321.548 29.672 320.844 29.832 320.14 30.152C319.436 30.408 318.796 30.888 318.22 31.592C317.644 32.296 317.164 33.224 316.78 34.376C316.396 35.464 316.204 36.84 316.204 38.504C316.204 39.784 316.46 41 316.972 42.152C317.548 43.24 318.316 44.2 319.276 45.032C320.236 45.864 321.356 46.536 322.636 47.048C323.98 47.496 325.42 47.72 326.956 47.72C327.788 47.72 328.844 47.496 330.124 47.048V33.32ZM330.124 66.824V49.256C328.972 49.704 327.884 49.928 326.86 49.928C325.708 49.928 324.268 49.672 322.54 49.16C322.092 49.992 321.868 51.336 321.868 53.192V66.728C322.06 66.856 322.348 67.048 322.732 67.304C323.116 67.56 323.532 67.848 323.98 68.168C324.428 68.488 324.876 68.808 325.324 69.128C325.772 69.448 326.188 69.704 326.572 69.896L330.124 66.824ZM382.172 77.288C382.172 77.736 382.012 78.248 381.692 78.824C381.372 79.464 381.02 80.008 380.636 80.456C380.316 80.904 379.836 81.512 379.196 82.28C378.556 83.048 378.108 83.592 377.852 83.912C375.868 86.344 374.204 88.392 372.86 90.056C371.58 91.784 370.588 93.16 369.884 94.184C364.572 91.176 358.556 89.928 351.836 90.44C351.708 90.632 351.516 90.92 351.26 91.304C351.068 91.752 350.844 92.328 350.588 93.032H350.492C350.428 92.968 350.236 92.616 349.916 91.976C349.596 91.336 349.372 90.888 349.244 90.632C350.14 89.288 351.516 87.464 353.372 85.16C355.292 82.92 357.692 80.168 360.572 76.904L348.38 68.648V68.264C349.468 67.752 350.012 66.44 350.012 64.328V30.92C356.54 27.272 362.044 23.72 366.524 20.264C370.94 23.208 375.324 25.864 379.676 28.232V28.616C378.588 29.384 378.044 30.728 378.044 32.648V66.44C378.044 68.36 378.716 70.408 380.06 72.584C381.468 74.76 382.172 76.328 382.172 77.288ZM366.236 70.088L368.156 67.88V32.072C366.812 31.176 365.468 30.312 364.124 29.48C362.78 28.648 361.468 27.848 360.188 27.08L359.9 27.272V65.48L366.236 70.088ZM375.068 85.64C374.94 83.4 373.852 81 371.804 78.44C369.756 76.008 368.572 73.416 368.252 70.664L358.364 82.376C364.892 82.44 370.428 83.56 374.972 85.736L375.068 85.64ZM416.707 28.616C415.619 29.512 415.075 30.952 415.075 32.936V66.344C409.251 69.608 403.747 73.16 398.563 77C396.323 75.464 394.115 74.024 391.939 72.68C389.763 71.272 387.587 69.96 385.411 68.744V68.36C386.499 67.848 387.043 66.6 387.043 64.616V30.92C389.987 29.256 392.803 27.528 395.491 25.736C398.243 23.944 400.931 22.12 403.555 20.264C406.435 22.12 408.963 23.72 411.139 25.064C413.379 26.344 415.235 27.4 416.707 28.232V28.616ZM405.187 70.088V32.072C404.099 31.304 402.883 30.504 401.539 29.672C400.195 28.84 398.755 27.976 397.219 27.08L396.931 27.176V65.192C398.019 66.024 399.235 66.856 400.579 67.688C401.923 68.52 403.395 69.384 404.995 70.28L405.187 70.088ZM533.812 67.304C533.364 67.816 532.436 68.936 531.028 70.664C529.62 72.328 527.7 74.696 525.268 77.768C520.148 74.824 515.54 72.808 511.444 71.72V71.144C515.796 68.328 517.972 64.232 517.972 58.856V42.152L505.876 47.624V67.208C506.708 67.528 507.668 67.816 508.756 68.072V68.36L500.116 77.672C498.196 76.392 496.308 75.176 494.452 74.024C492.66 72.872 490.9 71.816 489.172 70.856V42.152L477.364 47.432V66.632C479.54 67.016 480.692 67.208 480.82 67.208C481.908 67.208 483.188 66.248 484.66 64.328L486.004 65.384C484.02 67.816 482.26 70.056 480.724 72.104C479.188 74.152 477.812 76.008 476.596 77.672C470.58 75.24 463.796 74.024 456.244 74.024C454.26 74.024 452.692 74.248 451.54 74.696C450.836 74.888 450.26 75.08 449.812 75.272C449.428 75.4 449.076 75.592 448.756 75.848C448.436 76.04 448.084 76.296 447.7 76.616C447.38 76.936 446.932 77.32 446.355 77.768L445.012 76.136L452.5 69.416C457.812 64.68 460.468 59.88 460.468 55.016V45.512H459.22C454.484 45.512 451.412 46.952 450.004 49.832L449.14 49.448C449.588 44.648 450.804 41.096 452.788 38.792C454.772 36.488 457.236 35.336 460.18 35.336H460.468V21.608C459.38 20.84 458.452 20.232 457.684 19.784C456.98 19.272 456.436 18.888 456.052 18.632C455.732 18.376 455.316 18.088 454.804 17.768C454.356 17.448 453.844 17.128 453.268 16.808C452.116 16.104 451.252 15.656 450.676 15.464C450.1 15.272 449.524 15.176 448.948 15.176C447.924 15.176 446.708 15.88 445.3 17.288L444.052 15.944L456.148 5.768L471.22 16.616L475.54 13.448V12.392C475.54 10.088 475.252 8.008 474.676 6.152V5.96L476.788 6.248C477.172 7.78399 477.364 9.54399 477.364 11.528V12.104L486.004 5.672C486.708 6.248 487.54 6.888 488.5 7.592C489.46 8.23199 490.484 8.96799 491.572 9.8C493.876 11.336 495.796 12.584 497.332 13.544L499.635 14.984C500.852 14.152 501.812 13.48 502.516 12.968C503.284 12.456 503.796 12.104 504.052 11.912C503.924 9.544 503.636 7.624 503.188 6.152V5.96L505.3 6.248C505.556 7.78399 505.748 9.224 505.876 10.568C506.516 10.12 507.348 9.512 508.372 8.744C509.396 7.976 510.644 6.984 512.116 5.768C514.036 6.15199 515.892 6.79199 517.684 7.68799C519.476 8.584 521.268 9.8 523.06 11.336C524.852 12.872 526.292 14.92 527.38 17.48C528.468 20.04 529.012 22.952 529.012 26.216V48.584C529.012 52.168 528.436 55.048 527.284 57.224C526.132 59.4 523.988 61.64 520.852 63.944V64.232C525.908 65.704 530.228 66.632 533.812 67.016V67.304ZM505.876 37.16L517.972 31.592V29.48C517.972 24.744 516.98 21.16 514.996 18.728C513.012 16.232 509.972 14.44 505.876 13.352V37.16ZM505.876 46.088L517.972 40.52V33.224L505.876 38.696V46.088ZM504.052 66.536V14.024L500.308 16.712V65.096L504.052 66.536ZM477.364 36.968L489.172 31.592V21.032L478.036 13.64L477.364 14.12V36.968ZM477.364 45.896L489.172 40.52V33.224L477.364 38.504V45.896ZM475.54 15.56L471.604 18.536V49.256C471.604 55.272 467.764 60.616 460.084 65.288L460.372 65.672C463.06 64.968 464.66 64.616 465.172 64.616C466.644 64.616 470.1 65.16 475.54 66.248V15.56ZM569.444 69.896L562.148 77C560.996 76.104 559.684 75.112 558.212 74.024C556.74 72.936 555.076 71.752 553.22 70.472L545.636 77C544.036 75.72 542.372 74.472 540.644 73.256C538.916 71.976 537.124 70.696 535.268 69.416V69.032C536.356 68.328 536.9 66.728 536.9 64.232V53.384C538.564 52.552 540.1 51.752 541.508 50.984C542.98 50.216 544.292 49.48 545.444 48.776C543.332 48.008 541.604 46.728 540.26 44.936C538.916 43.144 538.244 41 538.244 38.504C538.116 37.16 538.244 35.88 538.628 34.664C539.012 33.384 539.364 32.36 539.684 31.592C539.748 31.4 539.876 31.144 540.068 30.824C540.324 30.44 540.58 30.088 540.836 29.768C541.092 29.384 541.316 29.064 541.508 28.808C541.7 28.552 541.828 28.36 541.892 28.232C541.956 28.04 542.404 27.496 543.236 26.6C543.62 26.152 543.908 25.832 544.1 25.64C544.292 25.384 544.42 25.224 544.484 25.16C545.252 24.2 545.924 23.336 546.5 22.568C547.076 21.736 547.588 21 548.036 20.36C553.22 22.6 557.284 24.36 560.228 25.64C563.236 26.92 565.156 27.72 565.988 28.04V28.424C564.9 29.32 564.356 30.824 564.356 32.936V67.4C564.612 67.656 564.964 67.944 565.412 68.264C565.86 68.52 566.308 68.776 566.756 69.032C567.268 69.288 567.748 69.48 568.196 69.608C568.644 69.736 568.996 69.736 569.252 69.608L569.444 69.896ZM554.468 33.32C550.372 30.888 547.748 29.672 546.596 29.672C545.892 29.672 545.188 29.832 544.484 30.152C543.78 30.408 543.14 30.888 542.564 31.592C541.988 32.296 541.508 33.224 541.124 34.376C540.74 35.464 540.548 36.84 540.548 38.504C540.548 39.784 540.804 41 541.316 42.152C541.892 43.24 542.66 44.2 543.62 45.032C544.58 45.864 545.7 46.536 546.98 47.048C548.324 47.496 549.764 47.72 551.3 47.72C552.132 47.72 553.188 47.496 554.468 47.048V33.32ZM554.468 66.824V49.256C553.316 49.704 552.228 49.928 551.204 49.928C550.052 49.928 548.612 49.672 546.884 49.16C546.436 49.992 546.212 51.336 546.212 53.192V66.728C546.404 66.856 546.692 67.048 547.076 67.304C547.46 67.56 547.876 67.848 548.324 68.168C548.772 68.488 549.22 68.808 549.668 69.128C550.116 69.448 550.532 69.704 550.916 69.896L554.468 66.824ZM600.756 31.016C599.22 32.552 597.172 35.08 594.612 38.6H594.228C590.9 35.016 588.532 31.496 587.124 28.04L585.108 30.152V65.096C588.5 67.272 590.804 68.36 592.02 68.36C592.596 68.36 593.204 67.944 593.844 67.112L594.708 66.152L596.34 67.592L587.028 77C585.172 75.784 583.124 74.568 580.884 73.352C578.708 72.072 576.276 70.792 573.588 69.512V69.128C574.676 68.168 575.22 66.568 575.22 64.328V29.96C573.492 28.616 571.892 27.88 570.42 27.752L570.228 27.464C572.02 25.864 573.492 24.488 574.644 23.336C575.86 22.12 576.82 21.128 577.524 20.36C578.42 21.064 579.732 22.184 581.46 23.72C582.356 24.488 583.124 25.16 583.764 25.736C584.468 26.312 585.044 26.76 585.492 27.08C586.196 26.44 587.156 25.576 588.372 24.488C589.588 23.4 591.028 22.024 592.692 20.36C595.38 24.584 598.068 28.136 600.756 31.016ZM634.114 28.616C633.026 29.512 632.482 30.952 632.482 32.936V66.344C626.658 69.608 621.154 73.16 615.97 77C613.73 75.464 611.522 74.024 609.346 72.68C607.17 71.272 604.994 69.96 602.818 68.744V68.36C603.906 67.848 604.45 66.6 604.45 64.616V30.92C607.394 29.256 610.21 27.528 612.898 25.736C615.65 23.944 618.338 22.12 620.962 20.264C623.842 22.12 626.37 23.72 628.546 25.064C630.786 26.344 632.642 27.4 634.114 28.232V28.616ZM622.594 70.088V32.072C621.506 31.304 620.29 30.504 618.946 29.672C617.602 28.84 616.162 27.976 614.626 27.08L614.338 27.176V65.192C615.426 66.024 616.642 66.856 617.986 67.688C619.33 68.52 620.802 69.384 622.402 70.28L622.594 70.088ZM671.145 28.616C670.057 29.512 669.513 30.952 669.513 32.936V66.344C663.689 69.608 658.185 73.16 653.001 77C650.761 75.464 648.553 74.024 646.377 72.68C644.201 71.272 642.025 69.96 639.849 68.744V68.36C640.937 67.848 641.481 66.6 641.481 64.616V30.92C644.425 29.256 647.241 27.528 649.929 25.736C652.681 23.944 655.369 22.12 657.993 20.264C660.873 22.12 663.401 23.72 665.577 25.064C667.817 26.344 669.673 27.4 671.145 28.232V28.616ZM659.625 70.088V32.072C658.537 31.304 657.321 30.504 655.977 29.672C654.633 28.84 653.193 27.976 651.657 27.08L651.369 27.176V65.192C652.457 66.024 653.673 66.856 655.017 67.688C656.361 68.52 657.833 69.384 659.433 70.28L659.625 70.088ZM712.496 69.896L705.104 77.096C703.696 76.008 702.224 74.92 700.688 73.832C699.152 72.744 697.552 71.656 695.888 70.568V70.184C696.976 69.48 697.52 67.944 697.52 65.576V31.016C696.816 30.504 695.952 29.928 694.928 29.288C693.904 28.648 693.136 28.104 692.624 27.656L689.264 30.344V67.976C689.712 68.36 690.288 68.808 690.992 69.32C691.696 69.768 692.208 70.12 692.528 70.376V70.472C691.248 71.56 690.032 72.648 688.88 73.736C687.728 74.824 686.608 75.912 685.52 77L677.744 71.048V70.664C678.832 69.768 679.376 68.136 679.376 65.768V29.96C677.584 28.552 675.984 27.816 674.576 27.752L674.384 27.56C675.92 26.152 677.296 24.872 678.512 23.72C679.728 22.504 680.784 21.384 681.68 20.36C684.368 22.472 687.28 24.616 690.416 26.792H690.512L698.096 20.36C700.464 22.024 702.544 23.464 704.336 24.68C706.192 25.832 707.76 26.824 709.04 27.656V28.04C707.952 28.808 707.408 30.088 707.408 31.88V67.496C709.456 69.096 711.088 69.832 712.304 69.704L712.496 69.896Z" fill="white"/>
</svg>
