<?xml version="1.0" encoding="utf-8"?>
<!-- Generator: Adobe Illustrator 24.3.0, SVG Export Plug-In . SVG Version: 6.00 Build 0)  -->
<svg version="1.1" xmlns="http://www.w3.org/2000/svg" xmlns:xlink="http://www.w3.org/1999/xlink" x="0px" y="0px"
	 viewBox="0 0 522 630" style="enable-background:new 0 0 522 630;" xml:space="preserve">
<style type="text/css">
	.st0{display:none;}
	.st1{display:inline;}
	.st2{fill:#FFFFFF;}
	.st3{fill:#737373;}
	.st4{fill:#800000;}
</style>
<g id="DOES_NOT_PRINT" class="st0">
	<rect x="-1.34" y="0" class="st1" width="522" height="630"/>
</g>
<g id="White_Fill">
</g>
<g id="Shield">
	<g>
		<path class="st2" d="M138.53,432.01c-3.93-1.68-8.22-2.77-11.86-5.23c2.56,8.63,4.45,16.18,9.24,25.29
			C138.65,457.26,143.4,444.75,138.53,432.01 M126.59,287.01l0.3,0.3c-0.06,11.71-32.96,28.51-47.05,36.06
			c21.79,7.52,42.41-12.71,39.94-7.79c-2.96,5.74-29.56,28.69-41.15,40.96c9.04,2.5,17.32-4.78,23.87-10.36
			c7.15-6.09,19.11-21.38,17.28-13.79c-19.33,23.86-34.56,73.43-25.18,76.59c5.37-11.23,27.61-68.5,29.01-68.24
			c1.47,0.28-1.75,15.12-2.24,24.93c-1.09,21.59-1.24,31.81,3.43,53.05c2.4-3.29,4.71-3.21,8.52-2.95c0.47-2.06,0.33-1.54-2.06-4.69
			c-6.18-8.18,0.92-19.35-2.05-26.15c-2.48-5.69-3.88-1.14-5-7.05c1.74-1.58,6.34-2.06,8.23-2.35c2.02-22.17,9.43-33.45,6.67-19.46
			c-1.42,7.07-3.57,18.82-2.54,19.17c1.02,0.35,1.12,0.34,2,0.81c0.41,0.21,37.25-60.38,16.82-18.39
			c-2.68,5.51-13.56,20.35-13.56,20.35c2.87,2.93,5.58,6.37,5.92,8.46c0.09,0.56,49.37-64.86,15.81-12.14
			c-2.06,3.23-12.13,14.03-14.71,17.16c-0.34,0.42,0.94,12.26,0.94,12.26c5.12-3.54,12.45-10.71,15.86-15.27
			c-0.46-6.69,1.11-5.8,1.48-12.35c1.56-1,3.6,1.79,6.07,4c1.17,1.04,33.82-55.81,13.34-13.16c-3.29,6.85-10.56,14.96-10.89,15.61
			c1.38,1.48,3.43,6.16,5.77,11.6c0.09,0.21,43.68-62.87,17.19-15.2c-2.09,3.76-15.21,19.55-15.04,19.96
			c3.22,7.88,6.04,15.57,6.03,15.55c-0.8-6.15-2.05-18.26,10.71-28.26c1.65,10.94,4.59,11.39,8.39,14.74
			c1.66,1.48,4.78,7.72,5.15,2.41c1.08-15.55-3.97-15.18-7.73-21.78c-0.9-1.59-0.73-5.14-0.03-4.92
			c31.39,0.94,30.34,30.34,35.58,30.32c-2.39-7.49-3.03-14.86-0.21-20.89c-8.41-5.96-6.31-16.16-4.7-20.58
			c-9.45-9.78-4.02-30.56,0.49-34.94c-6.08-8.84,1.42-14.88-0.19-20.3c-2.56-19.21-19.67-13.49-23.51-31.75
			c-2.67,3.25-7.62,14.32-5.3,18c2.66,4.22,8.37,4.58,8.71,7.67c0.14,1.31,0.57,4.99-0.37,5.77c-3.24,0.58-5.45-2.39-8.77-3.71
			c-6.65-2.63-22.74,8.39-23.71-1.33c-0.61-6.12,2.1-1.71,1.8-7.38c-0.27-5.85-3.21-1.73-3.25-9.27c-0.03-5.52,6.63-7.26,7.12-9.48
			c1.18-5.48,11.13,8.06,16.97-6.3c-3.39,0.48-10.27-1.9-9.62-5.24c1.74-8.99,1.88-30.73-18.46-26.05
			c-7.3,1.68-27.63,12.38-30.45,0.75c-7.33,12.97,7.17,10.71,11.54,10.43c-1.73,1.21-3.91,3.16-9.31,1.99
			c-11.45,7.54-53.3,34.13-65.38,40.82C101.27,302.77,126.24,287.01,126.59,287.01 M165.87,394.47c-5.68,5.67-7.65,5.81-7.34,8.27
			c1.28,3.46,3.78,5.9,6.44,8.87c3.36,2.74,4.59,5.2,2.13-2.78C165.59,403.53,165.96,399.67,165.87,394.47 M257.18,270.53
			c-1.01-2.26-2.72-4.41-5.17-5.54c-10.17-4.84-29.65,5.62-29.44-9.62c0,0-6.97,5.17-3.79,10.59
			C226.03,278.34,246.25,262.98,257.18,270.53 M104.18,118.14c-17.03,0-17.39,26.07,0,26.07
			C121.29,144.21,121.29,118.14,104.18,118.14 M104.18,170.23c-17.79,0-17.79,26.07,0,26.07
			C121.4,196.3,121.29,170.23,104.18,170.23 M122.02,140.04h15.16v-14.91h-15.16V140.04z M122.02,191.99h15.16v-14.91h-15.16V191.99
			z M163.36,175.7c-6.81,4.17-5.6,8.78-3.35,11.6c1.23-0.87,5.63-3.84,7.42-5.64C166.39,181.04,164.08,177.54,163.36,175.7
			 M179.11,152.63c-0.04-1.43-0.09-2.8-0.22-3.55c0.18-1.34-2.36-4.42-3.06-4.46c-0.82-0.02-2.52,1.53-3.5,3.06
			c-0.5,0.89-0.59,3.24,0.48,4.48C174.97,154.6,175.98,154.67,179.11,152.63 M179.16,159.98c-0.01-0.55-0.03-1.07-0.01-1.69
			c0-0.66,0.02-2.42,0-4.26c-2.12,1.31-2.97,2.32-5.16,1.02c-3.57,2.89,1.88,4.67,3.03,5.65
			C177.87,160.28,178.55,160.13,179.16,159.98 M206.85,118.18c1.2-0.88,4.06-4.13,5.91-5.93c-1.05-0.63-2.92-1.93-3.66-3.75
			C205.83,111.11,205.22,112.92,206.85,118.18 M231.05,121.32c-2,1.58-3.78,3-4.73,3.82c0.72,1.37,5.35,4.72,7.94,3.53
			c2.55-1.17,3.76-3.71,1.4-5.05C234.03,122.65,232.53,121.98,231.05,121.32 M233.03,117.27c1.2-0.96,2.31-1.86,2.7-2.17
			c-1.79-1.67-4.8-3.28-6.16-3.47c-1.34-0.14-4.07,1.03-3.01,2.43c1.02,1.34,2.09,3.01,4.31,3.33
			C231.6,117.47,232.32,117.4,233.03,117.27 M240.12,184.65c0.11-1.79,0.19-3.61,0.03-4.58c0.22-1.35-3.98-3.89-4.66-3.89
			c-0.87-0.01-0.87,0.47-1.87,2.07c-0.5,0.85-0.08,3.43,0.34,3.8C236.24,184.05,238.03,184.69,240.12,184.65 M234.6,185.02
			c-3.62,3.02,0.46,5.81,1.57,6.78c1.23-0.62,2.81-0.88,4.06-1.33c-0.16-0.49-0.4-0.95-0.4-1.52c0-0.54,0.09-1.74,0.19-3.04
			C237.61,186.15,236.51,186.32,234.6,185.02 M226.59,189.75l-2.23,2.47l-2.13,2.17c-1.65-1.7-2.83-2-3.12-3.34l-0.08-10.81
			l-3.38-1.75c-1.58,1.31-2.77,0.74-1.42-0.44l5.11-4.78l1.24-0.17l3.26,4.79l0.08,10.21C225.25,189.32,224.08,189.29,226.59,189.75
			 M225.48,156.68c-1.73-4.78,1.4-9.24,2.93-10.53c1.22-1.01,4.05-3.42,5.89-4.59c1.78,1.08,3.13,1.85,4.04,2.27
			c-0.32,0.88-0.72,2.62-2.6,2.71c-2.85,0.08-5.06-0.68-6.6,0.98c-1.53,1.64-0.33,6.32,1.58,8.1c1.42,1.37,5.36,3.12,6.09,1.52
			c0.95-2.08,2.34-0.99,0.98,0.82c-0.92,1.18-2.6,3.73-3.49,5.41C231.26,163.13,227.2,161.58,225.48,156.68 M229.65,190.34
			c-0.03-2.65,1.35-4.76,3.2-6.67c-0.13-0.13-0.21-0.17-0.35-0.26c-0.53-0.45-1.41-5.11-0.73-6.09c0.89-1.28,5.02-5.24,7.78-5.52
			c1.9-0.21,4.72,3.91,6.36,5.74c-0.46,0.53,0.57,11.87,0.57,12.94c0.57,0.93,2.55,1.59,3.15,0.69c0.78-1,1.52,0.06,0.78,0.81
			c-0.78,0.71-3.59,2.99-4.47,4.06c-1.28-1-3.4-2.11-4.78-3.77c-2.82,0.53-5.74,2.57-8.02,4.24
			C230.58,195.37,229.74,192.86,229.65,190.34 M252.61,161.53l-2.28,2.47l-2.88,2.48c-1.64-1.69-2.81-2.15-3.08-3.48l-0.1-11.13
			l-2.65-1.63c-1.54,1.37-2.78,0.78-1.4-0.46l5.14-4.74l1.19-0.16l2.23,3.3l-0.1,11.82C250.05,161.23,250.05,161.05,252.61,161.53
			 M249.83,125.12c-6.18-0.64-4.58-2.58-3.52-2.51C252.08,122.97,250.79,125.23,249.83,125.12 M249.93,121.45
			c-6.16,0.23-4.56-2.58-3.54-2.52C251.61,119.22,250.89,121.41,249.93,121.45 M244.92,134.75l2.65,2.74v2.83l-1.98,1.79h-1.65
			l-1.63-1.67l-0.05-3.3L244.92,134.75z M242.19,112.2c-0.63,0.77-3.06,2.74-5.84,4.94c0.42,0.08,0.84,0.16,1.27,0.41
			c4.48,2.62,6.01,6.31,1.61,9.8c-2.42,1.94-6.33,4.12-10.57,4.21c-2.8,0.07-7.79-2.29-8.7-3.28c2.28-2.14,4.74-4.48,6.52-5.99
			c-2.77-2.13-5.38-5-3.25-8.28c1.6-2.48,6.51-6.42,10.88-6.24C238.43,107.97,240.39,110.96,242.19,112.2 M218.82,126.55
			c-1.21,0.6-3.66,3.14-5.62,3.14c-5.88-0.24-13.29-4.51-12.2-12.41c1.14-8.23,7.62-11.38,10.4-11.46c3.19,0.23,3.93,2.97,5.72,4.63
			c-2.71,2.23-7.17,6.61-9.79,9.28c0.65,1.39,3.68,6.59,10.16,4.95C220.46,124.02,221.43,125.28,218.82,126.55 M199.36,113.5
			c-1.06,1.06-3.52,2.62-4.48,3.32c-1.25-0.74-2.8-2.99-3.58-3.59c-0.35,0.33-1.08,0.72-1.8,1.12c0,1.48,0.07,14.86-0.08,16.39
			c-1.88,0.1-3.51,0.23-4.84-0.06c-0.15-1.96,0.13-12.63,0.04-14.36c-0.16-2.13-2.03-2.27-4.51-2.99c1.41-1.71,4.02-3.62,5.2-4.53
			c2.13,1.67,3.44,1.67,4.51,2.89c1.36-0.76,3.81-2.22,4.87-3.11c1,1.18,2.88,3.11,3.61,3.99
			C199.29,111.62,200.47,112.41,199.36,113.5 M178.89,141.14c1.88-0.21,3.46,3.62,5.14,5.44c-0.48,0.52-0.48,11.84-0.48,12.91
			c0.39,0.65,1.72,1.39,2.26,0.89c0.92-0.89,1.5,0,0.72,0.74c-0.72,0.73-4.42,3.92-5.35,4.95c-1.29-0.98-1.75-2.43-1.93-4.39
			c-2.26,0.53-4.37,1.8-5.72,3.86c-2.52-1.15-4.48-3.34-4.56-5.79c-0.05-2.56,1.68-4.02,3.53-5.74c-0.32-0.25-0.61-0.47-0.98-0.8
			c-0.52-0.45-1.21-4.54-0.72-5.67C172.01,144.69,176.08,141.4,178.89,141.14 M175.17,135.17c-0.83-1.22-1.04-2.3-2.75-1.83
			c-4.32,1.25-9.06,2.55-12.49,0.54c-3.66-2.25-6.81-2.95-6.9-11.29c-0.08-5.07,4.4-9.11,7.33-10.83c3.32-1.91,9.04-0.68,11.62,0.09
			c1.24,0.39,2.2,0.25,2.28-1.37c0.03-0.89,1.41-0.67,1.38,0c0,0.72-0.05,10.99-0.05,11.82c-0.03,0.8-1.7,0.88-1.66,0.11
			c0-1.17-0.41-3.39-0.79-5.2c-0.57-2.71-7.65-7.68-12.75-1c-0.12,0.32-2.18,3.84-1.91,6.56c0.17,2.03,0.5,4.89,1.86,6.77
			c4.01,5.68,9.71,3.77,12.7-0.86c1.08-1.68,0.9-3.74,0.98-4.95c0-0.72,1.61-0.81,1.61,0c0,0.85-0.08,7.67-0.08,8.32
			c0.03,0.99,0.76,1.78,1.14,2.26C177.69,135.84,176.57,137.04,175.17,135.17 M153.56,146.12c2-2.97,6.68-5.82,9.86-6.97
			c1.01,1.19,2.22,3,3.71,4.97c-1.5,1.18-3.04,2.69-3.92,3.75c-0.69-0.78-4.51-6.48-7.19-2.49c-1.47,2.13-3.01,8.35,1.97,12.21
			c2.42,1.83,4.98,2.43,8.29,1.89c-1.69,2.2-2.11,2.84-3.06,4.75c-4.81,0.85-6.76-0.68-9.12-2.65
			C149.1,157.5,150.68,150.54,153.56,146.12 M155.63,184.31c1.21-8.26,9.21-11.62,11.63-13.25c0.43,2.39,3.2,6.57,4.99,8.25
			c-2.71,2.22-8.94,7.43-11.34,9.24c1.31,2.4,6.26,4.12,7.92,2.3c1.23-1.23,2.74-0.8,1.37,0.8c-1.8,2.08-3.64,5.03-4.55,6.86
			C162.05,196.97,154.56,192.25,155.63,184.31 M174.69,177.41c2.27-1.8,3.5-3.14,5.05-4.6c1.35,2.14,1.96,4.16,3.18,5.06
			c1.62-1.38,4.32-3.08,5.53-4.42c1.19,0.59,3.26,1.83,3.41,6.06c0.09,4.22,0.67,10.83,0.67,12.29c0,0.77,0.21,0.54,1.45,0.27
			c1.15-0.32,1.61,0.27,0.72,1.04c-0.9,0.73-5.06,3.63-6.17,4.87c-1.47-2.74-1.73-4.7-1.13-7.41c0.48-2.22,0.07-8.24,0.07-9.61
			c0-1.36-2.07-1.82-2.95-2.58c-1.22,0.91-1.38,1.07-2.45,2.1c0,1.82-0.23,14.5,0.04,16.16c-2.86,0.11-2.56-0.06-4.22-0.06
			c-0.13-2.45-0.05-12.23-0.19-14.33C177.54,180.15,175.74,178.62,174.69,177.41 M196.76,162.58c-1.22,1.08-3.92-0.63-4.9-2.27
			c-1.54-2.6-1.06-8.74-0.85-13.7c0.2,0.01-0.88-1.23-1.92-1.43c-1.31-0.33-1.54-0.8,0.49-1.64c2.49-0.98,6.35-6.97,6.9-8.32
			c0.48-1.32,1.23-0.07,0.5,1.22c-1.54,2.97-0.91,6.41-0.65,7.44c0.16,0.46,4.86-0.19,5.87-0.19c0.66,0.04,0.58,2-0.03,1.95
			c-0.81-0.02-6.97,0.75-6.97,0.75c-0.43,0.22,0.49,9.9,1.12,10.64c0.08,0.11,2.02,1.8,2.76,1.07c0.93-0.87,1.83,0.06,0.73,0.96
			C199.24,159.52,198.19,161.44,196.76,162.58 M199.33,177.08c1.9-1.38,5.13-7.35,5.56-8.7c0.4-1.39,1.2-0.91,1.06,0.57
			c-0.17,2.11-1.15,6.81-0.77,7.77c0.18,0.47,3.17,0.44,4.19,0.44c0.65,0,0.71,1.94,0.08,1.94c-0.81,0-4.17,0.49-4.17,0.49
			c-0.47,0.21-0.22,7.18,0.43,7.91c1.35,1.29,2.38,2.18,4.21,0.24c0.89-0.91,1.82-0.07,0.76,0.86c-0.57,0.53-3.1,3.62-3.67,5.14
			c-0.58,1.5-3.91,0.35-4.99-1.22c-1.69-2.53-0.97-7.66-1.1-12.63C201.24,179.98,197.72,178.3,199.33,177.08 M222.14,167.81
			c-1.55,1.47-2.79,2.86-4.13,4.36c-1.17-0.77-2.95-2.3-4.31-3.49c2.24-1.02,3.47-2.39,4.23-3.9
			C218.82,166.74,220.6,167.51,222.14,167.81 M211.9,143.2c3.58,1.14,8.88,0.3,10.56,5.06c1.79,5.02-1.47,11.47-5.63,11.76
			c-3.5,0.29-6.65-0.88-8.61-0.72c-0.91,0.08-1.57,0.36-1.72,1.33c-0.13,1.06-1.52,1.52-1.79,0.13c-0.3-1.34-0.7-7.05-0.7-8.71
			c0-1.67,1.53-1.83,1.82,0c0.29,1.78,0.82,3.05,2.21,4.58c1.06,1.22,7.92,2.91,10.44,0.9c2.03-1.63,1.55-5.2-0.57-6.58
			c-2.11-1.4-10.59-3.36-12.04-5.79c-2.48-4.15,1.94-7.61,3.88-8.74c3.03-1.69,6.55-1.15,7.76-1.12c1.19,0,2.76,0.4,2.85-0.9
			c0.09-1.27,1.06-1.16,1.19,0.17c0.4,3.71,0.75,1.48,0.65,5.42c0,1.81-0.65,1.83-1.42,0.44c-0.5-0.91-5.73-5.28-9.94-2.56
			C207.26,140.24,208.62,142.3,211.9,143.2 M225.17,207.83c18.63,1.24,34.49,9.85,34.49,9.85V97.57c0,0-27.39-19.17-71.88-2.01
			c-13.08,5.04-44.94,0.81-44.94,0.81v122.74C170.78,221.01,207.17,206.63,225.17,207.83 M269.01,247.32
			c0.01,1.6-2.05,3.83-2.05,3.83l7.42-3.75c-1.49-0.98-5.66-3.33-7.42-3.84C266.96,243.57,269.01,245.15,269.01,247.32
			 M280.05,247.2c-6.83,1.32-11.94,8.8-19.71,5.6c-1.01-0.67-3.12-1.23-2.84-2.77c1.39,0.8,3.57,1.31,5.09,1.54
			c0,0-4.17-3.45-0.5-7.71c-4.69,2.95-6.33,2.15-6.33,0.59c0-0.71,6.14-5.18,11.93-2.99c4.19,1.59,7.78,4.79,12.36,5.44V247.2z
			 M260.91,233.11c-3.84,0.43-8.51,2.7-9.68,6.76c-2.34,2.31-2.23-3.89-6.99-1.17c-2.02,2.75,3.26,8.81,2,9.18
			c-5.18,1.58-4.53-7.77-7.48-8.01c-4.26,1.51-14.99,11.31-4.44,19.07c-0.33-5.24,9.59-10.95,12.87,0.63
			c9.96-0.76,13.31,5.28,14.53,8.69c14.67,2.61,10.45,12.33,10.03,12.33c-1.39-2.09-7.7-11.81-18.03-5.1
			c-2.39,1.55-6.54,3.07-8.58,1.02c0.2,3.26,4.32,6.2,7.13,5.42c9.18-2.51,11.5,6.03,4.47,8.37c1.51,2.34,4.4,2.2,7.06,0.58
			c3.95-2.4,4.41-4.55,5.84-5.99c2.5,11.96-12.65,13.12-17.48,13.84c0.74,2.54,2.37,3.1,5.42,4c-15.99,0.54-19.12,15.54-18.18,24.19
			c3.61,0.27,9.16-7.55,8.67-3.07c-11.32,12.02-15.14,28.09-9.18,38.33c2.84-1.15,3.71-4.28,4.72-6.83
			c0.43-0.3,6.24,2.28-3.05,13.43c-0.65,2.9-3.91,11.64,3.25,13.73c2.73-3.22,2.33-6.03,2.93-9.33c2.08-0.83,3.45,5.91,2.65,7.96
			c-9.34,3.86-8.18,32.49,2.64,47.88c-5.01-11.18-4.34-25.53,0-37c3.34-8.85,10.68-28.76,10.87-28.53
			c4.17,5.11,9.42,27.06,9.42,36.15c5.84-5.08,6.98-10.64,11.76-14.39c2.27,7.97,3.18,13.23,4.99,20.27
			c2.32-6.87,8.45-14.63-0.32-36.91c1.8-1.63,5.12,7.72,6.17,7.27c0.8-0.31,1.99-4.99-0.99-13.7c-6.15-5.75-7.53-14.19-6.56-14.82
			c0.79-0.52,3.56,8.74,6.83,9.22c0.66-7.2,2.41-14.55,1.87-20.13c-0.12-1.46-2.53-8.88-9.34-15.03c-3.93-3.55-5.46-10.97-5.1-12.47
			c3.81,3.51,2.98,6.08,6.21,7.5c1.35-3.02,0.43-14.21-3.5-19.11c-2.25-3.71-1.18-3.2,1.5-0.95c3.51,4.18,1.82,3.84,4.85,5.59
			c6.64-15.66,0.61-18.71,1.07-19.82c0.41-0.99,5.14,7.31,9.15,4.12c-6.54-3.45-6.36-8.7-7.09-14.37c-0.57-4.48-3.46-6.16-2.35-7.25
			c6.52,4.92,8.32-0.53,8.52-1.62c-1.25,0.72-7.06,1.48-7.77-7.54c-0.28-3.56-5.74-5.13-5.73-5.12c3.36-0.64,14.11-1.24,11.54-11.91
			c-1.3,2.5-4.5,6.48-11.18,4.92c-0.01,0.01,4.29-1.15,3.51-5.79C280.06,243.39,271.68,231.58,260.91,233.11 M352.2,122.42
			c1.72,1.42,6.45,3.65,8.86,4.51c0.02-2.03-0.01-4.06-0.18-5.01c0.16-1.36-4.66-3.94-5.41-3.94c-0.87-0.06-2.11,1.36-3.21,2.99
			C351.69,121.85,351.74,122.06,352.2,122.42 M357.14,135.32c1.6-0.76,2.69-1.1,3.94-1.16c-0.07-0.62-0.13-1.25-0.12-2.03
			c0-0.6,0.05-2.25,0.08-4.08c-2.13-0.68-4.83-1.82-7.15-3.11c0.33,0.21,0.7,0.39,1.04,0.6
			C352.43,130.14,355.84,134.25,357.14,135.32 M357.27,160.61c1.05,2.71,5.64,6.24,6.89,6.86c1.92-2.3,2.94-6.51,2.5-10.07
			c-0.31-2.74-3.85-5.72-6.88-6.84C355.9,152.92,355.9,156.95,357.27,160.61 M296.18,186.33c-2.27,4.31-0.39,5.2,0.88,6.25
			c1.6-0.8,3-1.51,4.14-2.32c0.01-0.78,0.05-2.24,0.06-3.86C298.68,186.68,297.84,187.26,296.18,186.33 M301.27,185.14
			c0.01-1.93-0.02-3.83-0.17-4.73c0.16-1.4-2.86-3.47-3.65-3.52c-0.87,0-1.55,0.33-2.63,1.97c-0.54,0.87-0.41,4.3,0.06,4.67
			C297.42,185.68,299.02,185.42,301.27,185.14 M305.02,196.2c-1.65-1.26-3.05-1.56-3.58-3.54c-4.25,1.64-5.85,4.1-8.4,5.87
			c-1.5-1.39-2.74-3.87-2.78-6.46c-0.05-2.52,2.44-5.94,3.84-7.26c-0.17-0.16-0.26-0.17-0.46-0.36c-0.56-0.46-1.34-4.18-0.59-5.15
			c0.94-1.35,4.72-6.54,7.7-6.78c2.05-0.19,3.64,2.35,5.38,4.21c-0.44,0.5-0.25,9.55-0.32,10.66c1.9,2.04,2.68,2.51,3.82,1.75
			c1.14-0.78,1.6,0,0.8,0.76C309.62,190.69,306.02,195.12,305.02,196.2 M315.32,178.18c0.3,0.08-4.2-1.71-2.27-2.66
			c3.39-1.67,6.72-5.18,7.24-6.62c0.52-1.36,1.8-0.75,1.13,0.64c-0.66,1.38-1.13,4.77-0.75,5.81c0.15,0.45,2.71,0.69,3.86,0.71
			c0.65,0,0.61,2.02-0.05,2.02c-0.85-0.03-4.02,0.04-4.02,0.04c-0.46,0.22-0.12,11.35,0.15,12.3c0.35,0.92,2.99,1.56,3.95,0.65
			c0.98-0.91,1.99,0.03,0.81,0.91c-0.6,0.52-2.62,3.68-4.21,4.31c-1.65,0.63-4.12-0.43-5.19-2.04
			C314.23,191.61,315.26,183.28,315.32,178.18 M322.86,162.95c-1.93-1.1-4.58-3.65-6.01-5.75c-2.58,3.31-3.2,6.12-7.91,7.34
			c2.73-2.28,5.24-7.34,5.04-12.17c-0.21-4.36-2.58-6.48-4.66-7.29c-1.8,0.86-3.36,2.04-4.29,2.44c-0.99,0.39-1.26-1.15-0.55-1.49
			c2.29-1.12,7.33-4.96,8.03-5.71c2.14,0.38,4.78,2.23,5.16,3.96c1.62-0.99,4.49-4.12,5.35-4.83c0.98,1.7,3.87,3.81,7.08,4.98
			c-2.94,5.01-9.47,2-10.41,0.77c-1.06,1.75-1.3,2.81-0.25,5.03c1.34,3,6.71,5.84,9.49,6.58
			C328.08,157.72,324.22,162.05,322.86,162.95 M327.37,180.77c1.95-2.17,4.04-3.56,5.23-4.77c2.07,1.54,2.73,2.48,3.85,4.2
			c-0.04,2.76-0.62,8.62-0.44,10.66c0.1,1.99,8.02,3.33,8.37,0.39c0.35-2.92,0.09-6.67,0-8.4c-0.15-1.34-3.26-1.97-4.85-1.75
			c2.13-2.24,3.94-3.88,5.29-5.11c1.9,1.42,3.77,3.48,4.9,5.2c-0.05,2.98-0.57,9.91-0.15,11.74c0.54,1.91,0.35,2.03,1.78,2.99
			c-1.46,1.36-2.55,1.96-3.54,3.04c-1.49-0.43-4.01-2.67-3.85-4.67c-1.8,1.24-7.17,3.48-9.09,3.97c-1.93-2.01-3.4-2.52-3.53-4.95
			c-0.11-2.51,0.56-9-0.23-10.54C330.33,181.24,328.98,180.89,327.37,180.77 M352.51,160c0.19-6.33,4.38-11.69,11.17-14.1
			c5.35,1.79,7.59,7.2,7.77,10.85c0.13,2.97-1.84,6.87-3.16,9.28c-2.12,1.39-4.23,3.44-6.23,5.36
			C355.54,171.34,352.39,163.71,352.51,160 M353.35,184.4c1.62-0.92,5.45-4.43,6.79-5.34c2.21,1.72,3.65,3.42,4.74,4.65
			c1.47-0.76,3.77-2.43,4.88-3.36c1.95,1.38,4.12,3.18,4.93,4.13c1.02-0.95,2.29-0.2,1.12,0.97c-1.12,1.05-3.66,3.27-4.63,4.02
			c-1.42-0.76-3.86-3.57-4.67-4.17c-0.41,0.35-1.22,0.74-1.92,1.13c-0.04,1.54,0,14.2-0.1,15.75c-2.08,0.12-3.77,0.26-5.2-0.04
			c-0.13-2.01,0.08-12.99,0-14.76C359.17,185.22,355.68,184.46,353.35,184.4 M378.8,161.87c-1.64-0.11-3.23-0.36-4.1-0.61
			c-1.39-0.42-0.83-1.95,0.34-1.95c1.09,0.02,2.86,0.36,3.66,0.65C379.49,160.28,379.82,162,378.8,161.87 M378.9,158.09
			c-1.59-0.08-3.25-0.36-4.13-0.61c-1.39-0.37-0.8-1.96,0.32-1.96c1.13,0,2.89,0.33,3.74,0.65
			C379.63,156.49,379.98,158.19,378.9,158.09 M368.87,133.9l-4.88,5.34c-1.43-1.02-2.29-2.11-2.7-3.92c-3.74,0.73-6.28,2.95-8,4.29
			c-1.55-1.39-3.87-5.13-3.89-7.69c-0.07-2.55,1.95-6.32,3.35-7.63c0.14,0.06,0.27,0.14,0.4,0.22c-0.81-0.48-1.58-0.97-2.17-1.46
			c-0.53-0.47-0.71-1.74,0-2.75c0.96-1.28,4-5.08,6.98-5.54c1.58-0.21,4.25,0.2,7.92,3.48c-0.47,0.57-0.47,11.25-0.47,12.37
			C366.71,132.2,368.87,133.9,368.87,133.9 M336.56,153.16c-0.78,3.96,2.63,7.19,5.24,8.57c2.1,1.09,5.7,0.48,6.6,0.34
			c0.87-0.12,0.62-0.39,1.27-0.99c0.66-0.63,1.43-0.06,0.9,0.55c-0.59,0.63-5.88,5.66-7.34,6.67c-1.33,0.34-4.3,0.24-6.07-1.99
			c-3.13-3.93-5.4-5.35-4.42-12.51c0.69-4.84,8.78-9.04,10.64-10.08c0.74,0.73,4.42,4.6,6.03,5.9c-0.63,0.81-2.66,1.72-4.62,1.7
			c-2,0-3.34-1.67-4.67-3.15C339.18,149.04,337.14,150.24,336.56,153.16 M347.07,114.21c-0.91,0-10.03,1.1-10.03,1.1
			c-0.48,0.22,0.47,11.52,0.81,12.43c0.28,0.95,1.16,2.35,2.19,1.45c0.93-0.93,2.02,0.61,0.91,1.52c-0.64,0.51-2.65,4.51-3.58,5.09
			c-1.44,0.92-3.53-2.07-4.2-3.92c-1.1-3.08-1.83-10.79-1.82-15.93c0.32,0.09-4.27-1.82-2.2-2.62c4.01-1.73,7.87-7.05,8.36-8.43
			c0.5-1.4,1.77-0.82,1.12,0.58c-1.33,2.79-1.19,4.8-0.62,6.45c0.2,0.44,7.91,0.28,9.07,0.28
			C347.72,112.21,347.69,114.21,347.07,114.21 M325.78,128.16l-3.77,4.9h-3.51c-1.74-1.74-2.9-3.1-3.24-4.51l-0.19-11.76l-4.38-2.51
			c-0.81,1.1-2.43,1.1-1.81,0.18l6.04-5.3l1.32-0.15l3.85,3.85l-0.07,12.15C321.92,127.18,323.04,127.69,325.78,128.16
			 M320.87,104.23l-2.12,1.84h-1.75l-1.75-1.74l-0.07-3.41l2.84-2.41l2.86,2.77V104.23z M308.72,103.98
			c-2.1,0.62-3.6,2.71-4.12,4.85c-0.41,2.19-7.55,22.88-8.39,24.24c-1.71-6.46-8.86-21.84-11.14-25.11
			c-1.97-2.89-3.85-2.36-5.66-2.41c-1.75,0-1.09-1.67,0.35-1.54c1.99,0.25,13.28,1.24,16.48,1.69c1.15,0.23,1.18,1.27-0.33,1.74
			c-0.78,0.2-2.59,1.08-2.59,1.96c0,1.22,4.1,10.23,5.23,11.92c0.96-2.32,4.83-12.17,4.05-14.34c-0.85-2.16-1.15-2.5-2.76-2.66
			c-1.61-0.19-1.61-1.13,0.33-1.43c1.93-0.3,7.28-0.76,8.9-0.56C310.69,102.47,310.88,103.39,308.72,103.98 M283.15,141.17
			c3.55-1.94,11.51-3.17,14.25-2.31c1.38,0.37,2.78,0,2.78-0.64c0-0.93,1.28-0.68,1.28,0c0,0.69-0.03,9.4-0.1,10.22
			c0,0.84-1.26,0.75-1.26,0c0-1.26,0-1.65-1.09-3.32c-3.18-4.79-11.99-5.2-16.35,0.57c-1.5,1.93-2.05,5.31-0.37,5.87
			c1.65,0.56,7.9,0.05,9.93-0.32c2.02-0.36,7.06-1.2,7.64-1.61c0.58-0.35,1.36-0.83,1.36,0.16c0,1.03,0,4.34-0.05,5.35
			c0,1.03-0.8,0.53-1.32,0.14c-0.59-0.34-5.32-0.82-7.37-0.95c-3.42-0.29-8.59-1.36-10.28-0.84c-1.71,0.5-0.37,3.14,1.11,5.12
			c4.3,5.81,12.34,6,15.55,1.25c1.18-1.72,1.18-2.08,1.18-3.28c0-0.77,1.31-0.91,1.31,0c0,0.8-0.07,8.02-0.07,8.72
			c0,0.71-1.34,0.91-1.34-0.04c0.06-1.53-0.9-1.43-2.67-0.91c-4.67,1.24-10.89,1.65-14.6-0.44c-3.91-2.25-7.33-2.98-7.43-11.58
			C275.16,147.13,280,142.98,283.15,141.17 M276.74,167.61c1.17,0.11,4.67,0.18,5.91,0.18c-0.15,2.61-0.15,20.72,0,22.59
			c0.16,1.87,1.78,2.45,3.4,1.7c0.81-0.32,1.54,0.25,0.49,1.12c-1.79,1.32-3.95,4.46-4.94,5.67c-2.05-1.39-4.28-3.16-4.12-4.83
			C277.73,191.11,276.84,170.06,276.74,167.61 M303.06,207.83c12.35,0,60.91,13.32,84.31,11.73V97.42c0,0-34.46,4.87-64.27-6.14
			c-24.35-8.98-57.82,6.71-57.82,6.71c0.03,4.16,0,119.78,0,119.78S277.59,207.83,303.06,207.83 M391.72,170.91v23.25
			c0,0,12.99-0.11,27.4-9.38c4.32-2.79,10.71-1.65,13.89,0.88h0.02c0,0-1.94-15.22-14.84-13.34
			C394.47,175.78,391.72,170.91,391.72,170.91 M433.01,137.25c0.21,1.49,0.35,2.55,0.45,3.23c-0.09-0.69-0.24-1.74-0.43-3.23
			c0,0-0.74-13.7-15.42-13.7c-4.79,0-10.6,5.83-25.47-0.62v23.25c6.03,1.78,22.55-7.66,29.15-10.54
			C426.01,133.58,432.68,134.92,433.01,137.25 M416.84,381.46c-0.97-36.79-23.54-77.59-17.4-70c15.37,18.99,20.3,60.15,30.84,95.59
			c-0.01-0.01,6.77,3.45,5.33-41.52c-0.31-9.12-4.02-21.23-8.52-29.68c-8.94-16.7-27.01-44.85-26.49-45.06
			c4.36-3.54,14.97,20.74,24.2,30.29c5.99,6.18,22.62,12.24,23.77,11.43c-13.34-25.85-45.64-50.2-42.27-53.21
			c23.79,22.29,31.29,23.35,32.28,22.17l-21.42-20.8c-6.04-8.11-14.05-14.35-12.93-14.1c9.55,2.12-4.99-7.94-16.22-11.01
			c-2.02-0.55-5.27-0.72-5.38-1.74c-0.18-1.73,2.64-1,5-1.73c1.54-0.45,3.1-1.64,3.13-3.84c-4.29,0.94-8.68-0.05-12.36-1.72
			c-7.57-3.52-21.14-7.6-27.39-5.14c-3.66,1.44-4.35,1.23-8.28,4.27c-1.73-0.72-6.51-3.78-13.27,4.38
			c-2.09,2.52-4.61,5.47-4.73,7.63c-0.29,5.46,0.12,0.28,1.46,5.46c0.54,2.17-1.92,6.15-11.89,9.5c-3.85,1.29-2.88,5.1-2.88,5.1
			c1.91-0.92,4.93-3.07,9.59-0.89c9.1,4.27,10.89-2.47,16.55-7.28c0,0-1.56,6.05-0.02,6.37c7.07,1.46,4.71,6.77,3.82,7.57
			c-8.92,7.96-5.18,10.96-8.37,15.87c-2.99,4.64-7.62,6.39-14.53,6.17c-9.52-0.3,12.46-14.68-8.56-20.66
			c3.3,5.5,4.63,9.93-2.72,14.2c-4.64,2.69-2.28,16.37-14.17,10.03c0,0.02-0.97,10.13-2.33,10.57c16.14,14.14,7.12,21.86,7.94,42.04
			c5.05,12.86-0.5,18.98-1.76,19.69c0.8,8.71,1.62,13.48,7.06,20.56c3.95,5.15-0.36,13.05,3.66,18.55
			c3.7-13.12,7.67-7.65,8.74-25.88c1.48-3.06,7.61-8.46,11.1-8.81c-0.05,11,4.01,21.01,3.14,25.64c0,0,9.28-1.68,12.14-0.67
			c2.28,0.78,4.04,3.77,4.11,5.6c-3.15,1.98-3.16,1.21-7.92,4.7c-8.33,6.06-12.16,18.43-12.16,18.44
			c-0.02,0.01,19.57-15.61,20.98-18.44c1.11-2.23,2.17-5.67,3.21-9.22c0.11-0.38-10.09-6.34-12.89-11.79
			c-8.76-17.03,13.56,10.08,14.09,7.72c1.31-5.88,5.4-11.43,5.4-11.43c-1.42-1.67-4.92-2.72-10.25-12.12
			c-12.21-21.5,14.14,9.17,14.14,9.17c6.99-4,7.03,1.34,7.91,7c0.09,0.53,11.86,9.21,12.42,9.77c3.33-3.1,5.73-7.3,7.09-10.19
			c0.18-0.39-21.27-19.41-24.93-25.69c-29.56-50.69,23.92,22.5,26.45,20.49c1.41-3.97,1.9-9.42,1.73-16.81
			c0-0.18-10.06-7.12-16.49-17.75c-24.84-41.02,16.3,12.24,16.28,11.86c-0.49-8.79-7.68-46.88-2.71-35.43
			c2.55,5.88,10.56,30.22,9.08,55C401.03,387.18,412.49,382.6,416.84,381.46 M370.25,421.91c0,0-3.95-2.99-4.17-2.41
			c-0.65,1.73-1.5,3.68-2.66,5.99C362.39,427.56,365.49,426.08,370.25,421.91 M368.67,406.61c-0.49,3.33-0.49,5.94-1.54,9.72
			c-0.1,0.37,3.75,1.92,5.5,3.42c2.46-2.3,4.66-3.46,7.25-6.69c-0.58-0.36-10.86-9.31-10.88-8.92
			C368.92,405.34,368.89,405.17,368.67,406.61 M400.51,427.76c4.58-3.85,7.2-10.41,13.08-12.36c-4.45-4.07-8.8,4.04-11.07,1.22
			c4.08-6.46,6.68-11.37,7.12-19.43c0.23-4.36,5.27-8.41,6.46-10.81c-4.85,0.71-17.82,8.35-20.44,12.75
			c-8.72,11.52-8.26,22.33-44.72,38.42c-1.81,0,6.74-6.23,9.18-13.43c1.15-3.37,5.95-19,2.64-26.54
			c-7.54,7.65-5.99,10.15-8.12,15.81c-5.43,14.92-8.41,16.32-22.02,25.52c-1.81,1.22-12.23,17.33-25.77,18.11
			c1.37-0.38,0.59-3.73,5.16-6.72c15.15-9.92,9.38-31.36,29.16-34.91c-9.85-3.5-16.6,6.08-18.41,5.12
			c7.97-11.04,0.96-20.38,2.12-29.4c-2.66,1.42-5.32,4.65-5.57,7.31c-1.49,16.07-8.98,18.86-9.74,25.78
			c1.59,11.45-7.61,20.37-14.35,28.41c-1.3-6.67,0.44-12.6,8.85-18.12c4.64-3.04-0.44-12.17-0.44-12.17
			c-1.88,10-7.51,13.06-11.01,13.55c-3.04,0.44,10.73-13.99,9.13-27.18c-0.71-5.87-2.39-3.26-3.34-9.85
			c-11.89,13.19-3.19,21.38-15.36,36.59c-5.77,7.21-7.94,19.9-8.7,20.22c0.13-18.89,0.74-13.37,9.13-28.71
			c6.91-12.62-0.38-24.39-1.32-32c-15.12,10.4-13.86,30.49-14.25,26.14c-0.38-4.27-2.26-11.8-0.23-18.62
			c3.36-11.31-3.77-28.55-3.77-28.55c-21.16,33.19-3.41,71.97-4.73,71.49c-9.19-14.37-15.88-14.95-17.89-25.97
			c-1.09-6-11.99-38.87-32.02-39.45c10.1,8.7,7.65,9.89,8.32,24.14c-6.43,35.66,43.46,39.36,40.12,57.85
			c-6.84-10.96-17.28-15.58-33-24.14c-6.97-5.52-14.83-7.96-15.25-16.6c0.84-6.27,1.2-4.98,0.12-13.14
			c-0.78-5.83-6.51-2.3-10.72-14.46c-9.01,8.14-5.71,17.37-4.97,22.63c0.21,1.49,1.24,7.04-0.15,10.26
			c-3.21-2.21-5.42-6.76-9.01-11.31c-6.46-8.28-6.38-18.31-9.63-25.29c-1.5-3.24-3.64-7.63-4.91-7.69l-0.23,0.13
			c-1.58,12.97-0.81,24.29,5.07,34.01c0-0.01-1.62,2.79-2.93,3.51c-5.59-1.48-13.52-6.18-16.75-15.29
			c-6.95,5.84-2.02,13.38-2.35,13.26c-15.62-8,0.18-39.01-22.06-38.1c5.48,5.97,2.02,13.65,1.54,20.81
			c-0.12,11.62,14.65,20.67,14.65,20.67c-16.48-5.57-19.87,2.15-19.67,2.15c0,0,24.27,10.54,62.6,14.52
			c4.92,0.52,11.95,6.31,10.79,6.31c-4.92-0.39-14.66-6.73-28.71,5.74c8.27,0.22,13.93,13.68,27.39,5.96
			c34.68-9.81,47.53,7.4,53.17,11.83c-1.21,2.17-26.65-15.98-46.84-3.95c-10.74,6.4-27.98,0.61-41.49-9.5
			c5.46,13.92,28.68,29.61,36.35,29.63c9.42,0.01,21.45-12.29,35.1-11.61c21.87,1.08,24.91,20.61,22.49,19.11
			c0,0.01-17.21-28.46-39.32,1.94c10.33-4.74,24.16-3.52,36.26,2.21c1.63,0.78-2.97,5.86-6.22,9.57
			c-2.12,2.4-11.35,16.08-21.33,2.62c-1.49-2-6.25-14.5-37.45-11.84c11.78,5.31,24.79,19.26,31.21,25.62
			c16.35,16.18,41.06-19.64,42.01-15.64c0,8.04,4.13,11.96,6.31,16.31c5.47,10.95-6.96,9.13-13.7,6.31c0,0,12.9,20.1,23.7,8.91
			c11.96-12.39-15.65-21.74-6.88-31.6c4.94-5.55,22.29,12.41,30.15,12.47c21.21,2.36,20.1-17.77,31.3-17.19
			c-10.53-10.67-21.73-4.86-24.08-2.13c-7.06,8.24-15.25,2.71-20.92-1.73c-3.12-4.08-8.3-4.71-12.93-3.47
			c-2.2,0.18,4.45-7.79,13.09-6.11c19.51,3.79,39.07-3.21,43.87-5.9c7.85-4.42,12.25-11.9,21.03-20.25
			c-2.74,0.53-18.96,9.55-24.18,12.19c-15.64,7.87-25.41-2.34-27.17-2.29c-3,0.09-2.23-2.27,2.49-3.79
			c16.03-3.57,27.11-17.72,42.4-23.29C364.82,436.75,386.23,441.87,400.51,427.76 M394.38,455.23c6.39-9.14,10.06-18.99,12.22-29.61
			c-3.71,4.86-9.19,9.1-14.66,11.28C388.09,449.12,389.91,461.73,394.38,455.23 M452.48,354.38
			C436.55,525.74,293.12,554.9,262.56,560.47c-1.63,0.3-172.7-21.39-189.96-206.04c0-0.07,0-272.44,0-272.44s163.39-21.1,379.86,0
			L452.48,354.38z M462.44,355.95l-0.02-283.74c-227.94-21.98-399.98,0-399.98,0s0,283.72,0,283.79
			c18.16,192.34,198.31,214.93,200.01,214.62C294.64,564.82,445.67,534.45,462.44,355.95"/>
	</g>
</g>
<g id="TMs" class="st0">
	<g class="st1">
		<path class="st2" d="M414.37,514.17h-6.22v-3.19h15.9v3.19h-6.22v16.41h-3.47V514.17z"/>
		<path class="st2" d="M427.69,510.98h3.67l5.96,9.27l5.96-9.27h3.67v19.6h-3.44v-14.06l-6.19,9.24h-0.11l-6.13-9.18v14h-3.39
			V510.98z"/>
	</g>
</g>
</svg>
