<svg width="91" height="73" viewBox="0 0 91 73" fill="none" xmlns="http://www.w3.org/2000/svg">
<path d="M90.624 62.304C90.176 62.816 89.248 63.936 87.84 65.664C86.432 67.328 84.512 69.696 82.08 72.768C76.96 69.824 72.352 67.808 68.256 66.72V66.144C72.608 63.328 74.784 59.232 74.784 53.856V37.152L62.688 42.624V62.208C63.52 62.528 64.48 62.816 65.568 63.072V63.36L56.928 72.672C55.008 71.392 53.12 70.176 51.264 69.024C49.472 67.872 47.712 66.816 45.984 65.856V37.152L34.176 42.432V61.632C36.352 62.016 37.504 62.208 37.632 62.208C38.72 62.208 40 61.248 41.472 59.328L42.816 60.384C40.832 62.816 39.072 65.056 37.536 67.104C36 69.152 34.624 71.008 33.408 72.672C27.392 70.24 20.608 69.024 13.056 69.024C11.072 69.024 9.504 69.248 8.352 69.696C7.648 69.888 7.072 70.08 6.624 70.272C6.24 70.4 5.888 70.592 5.568 70.848C5.248 71.04 4.896 71.296 4.512 71.616C4.192 71.936 3.744 72.32 3.168 72.768L1.824 71.136L9.312 64.416C14.624 59.68 17.28 54.88 17.28 50.016V40.512H16.032C11.296 40.512 8.224 41.952 6.816 44.832L5.952 44.448C6.4 39.648 7.616 36.096 9.6 33.792C11.584 31.488 14.048 30.336 16.992 30.336H17.28V16.608C16.192 15.84 15.264 15.232 14.496 14.784C13.792 14.272 13.248 13.888 12.864 13.632C12.544 13.376 12.128 13.088 11.616 12.768C11.168 12.448 10.656 12.128 10.08 11.808C8.928 11.104 8.064 10.656 7.488 10.464C6.912 10.272 6.336 10.176 5.76 10.176C4.736 10.176 3.52 10.88 2.112 12.288L0.864 10.944L12.96 0.767996L28.032 11.616L32.352 8.44799V7.392C32.352 5.088 32.064 3.008 31.488 1.152V0.959999L33.6 1.248C33.984 2.78399 34.176 4.54399 34.176 6.528V7.10399L42.816 0.671997C43.52 1.248 44.352 1.888 45.312 2.592C46.272 3.23199 47.296 3.96799 48.384 4.8C50.688 6.33599 52.608 7.584 54.144 8.544L56.448 9.984C57.664 9.152 58.624 8.48 59.328 7.96799C60.096 7.456 60.608 7.104 60.864 6.912C60.736 4.544 60.448 2.624 60 1.152V0.959999L62.112 1.248C62.368 2.78399 62.56 4.224 62.688 5.568C63.328 5.12 64.16 4.512 65.184 3.744C66.208 2.976 67.456 1.984 68.928 0.767996C70.848 1.15199 72.704 1.79199 74.496 2.68799C76.288 3.584 78.08 4.8 79.872 6.336C81.664 7.872 83.104 9.92 84.192 12.48C85.28 15.04 85.824 17.952 85.824 21.216V43.584C85.824 47.168 85.248 50.048 84.096 52.224C82.944 54.4 80.8 56.64 77.664 58.944V59.232C82.72 60.704 87.04 61.632 90.624 62.016V62.304ZM62.688 32.16L74.784 26.592V24.48C74.784 19.744 73.792 16.16 71.808 13.728C69.824 11.232 66.784 9.44 62.688 8.352V32.16ZM62.688 41.088L74.784 35.52V28.224L62.688 33.696V41.088ZM60.864 61.536V9.024L57.12 11.712V60.096L60.864 61.536ZM34.176 31.968L45.984 26.592V16.032L34.848 8.64L34.176 9.12V31.968ZM34.176 40.896L45.984 35.52V28.224L34.176 33.504V40.896ZM32.352 10.56L28.416 13.536V44.256C28.416 50.272 24.576 55.616 16.896 60.288L17.184 60.672C19.872 59.968 21.472 59.616 21.984 59.616C23.456 59.616 26.912 60.16 32.352 61.248V10.56Z" fill="white"/>
</svg>
