<svg
    width="65vw"
    height="96vh"
    viewBox="-15 625 1000 1240"
    fill="none"
    xmlns="http://www.w3.org/2000/svg"
    id="coi-flowchart"
    class="flowchart"
    style="position:absolute; top:-30; left: 0; display: none;"
>
    <style>
        #coi-flowchart text {
            fill: black;
            font-family: 'Open Sans', sans-serif;
            font-weight: bold;
            font-size: 16px;
            letter-spacing: -0.011em;
            white-space: pre;
        }
        #coi-flowchart a text {
            fill: black;
            font-size: 20px;
        }
    </style>
    <a
        target="_blank"
        href="https://projects.propublica.org/nonprofits/organizations/362177139"
    >
        <circle cx="410" cy="1690" r="165" fill="#643335" 
        id="flowchart-individual-firms"/>
        <text x="378" y="1556" style="fill: white !important" class="top-line">Asset</text>
        <text x="323" y="1576" style="fill: white !important" class="left-line">management firms</text>
        <circle cx="350" cy="1768" r="60" height="118" fill="white" />
        <text x="316" y="1764" class="top-line">Carlyle</text>
        <text x="319" y="1786">Group</text>
        <circle cx="471" cy="1768" r="60" fill="white" />
        <text x="446" y="1764" class="top-line">Lake</text>
        <text x="435" y="1786">Capital</text>
        <circle cx="350" cy="1648" r="60" fill="white" />
        <text x="317" y="1644" class="top-line">PIMCO</text>
        <text x="309" y="1667">and Man</text>
        <circle cx="471" cy="1648" r="60" fill="white" />
        <text x="443" y="1644" class="top-line">Trian</text>
        <text x="427" y="1666">Partners</text>
    </a>
    <a
        target="_blank"
        href="https://projects.propublica.org/nonprofits/organizations/362177139"
    >
        <circle cx="410" cy="905" r="165" fill="#643335"
        id="flowchart-individual-trustees" />
        <text x="330" y="793" style="fill: white !important" class="left-line">Board of Trustees</text>
        <circle cx="350" cy="861" r="60" fill="white" />
        <text x="321" y="849" class="top-line">David</text>
        <text x="316" y="871">Ruben-</text>
        <text x="324" y="893" class="bottom-line">stein</text>
        <circle cx="471" cy="861" r="60" fill="white" />
        <text x="446" y="859">Paul</text>
        <text x="428" y="881" class="bottom-line">Yovovich</text>
        <circle cx="350" cy="982" r="60" fill="white" />
        <text x="299" y="979">Emmanuel</text>
        <text x="314" y="1001" class="bottom-line">Roman</text>
        <circle cx="471" cy="982" r="60" fill="white" />
        <text x="422" y="989">Peter May</text>
    </a>
</svg>
